<?xml version="1.0" encoding="UTF-8"?>
<svg version="1.1" xmlns="http://www.w3.org/2000/svg" width="271" height="240">
<path d="M0 0 C89.43 0 178.86 0 271 0 C271 79.2 271 158.4 271 240 C181.57 240 92.14 240 0 240 C0 160.8 0 81.6 0 0 Z " fill="#FCFCFC" transform="translate(0,0)"/>
<path d="M0 0 C66.33 0 132.66 0 201 0 C200.67 0.66 200.34 1.32 200 2 C199.34 2 198.68 2 198 2 C198.33 2.33 198.66 2.66 199 3 C199.66 2.67 200.32 2.34 201 2 C205.79183149 1.32914359 209.08525083 1.46495803 213.3125 3.9375 C218.51605152 8.99650842 221.09190246 16.98426092 221.25 24.125 C221.02334943 35.68417886 215.71686547 43.86048689 207.9921875 52.15625 C200.50506064 58.91881619 190.92237379 62.16014804 181.70410156 65.89746094 C170.64669941 70.40587807 159.69160875 74.911374 150 82 C149.29875 82.50660156 148.5975 83.01320313 147.875 83.53515625 C138.51425585 90.97621654 132.30880098 102.02885128 128 113 C127.566875 114.093125 127.13375 115.18625 126.6875 116.3125 C125.92353024 119.29892726 125.85379628 121.92972198 126 125 C126.32871094 124.39414063 126.65742187 123.78828125 126.99609375 123.1640625 C130.89876681 116.28943515 135.48296808 110.64465009 141 105 C141.51820313 104.43410156 142.03640625 103.86820312 142.5703125 103.28515625 C148.36254976 97.56873361 156.57042615 94.97674979 164 92 C164.97549805 91.60603027 164.97549805 91.60603027 165.97070312 91.20410156 C176.43496622 87 176.43496622 87 179 87 C178.51263618 92.92739781 177.31874748 97.46164126 174.625 102.75 C174.27703369 103.43956787 173.92906738 104.12913574 173.57055664 104.83959961 C169.78417718 111.96307118 164.72065653 117.39134427 159 123 C158.05640625 123.99580078 158.05640625 123.99580078 157.09375 125.01171875 C153.32580983 128.9662786 149.18785516 132.31145156 144.8984375 135.68359375 C141.40042546 138.4791748 137.97361614 141.34942703 134.5625 144.25 C133.95913818 144.75748779 133.35577637 145.26497559 132.73413086 145.7878418 C128.31576842 149.4267283 128.31576842 149.4267283 125 154 C125.17144531 154.81984375 125.34289062 155.6396875 125.51953125 156.484375 C126 159 126 159 124.63671875 161.203125 C123.99347656 161.87859375 123.35023437 162.5540625 122.6875 163.25 C122.05199219 163.93578125 121.41648437 164.6215625 120.76171875 165.328125 C117.71301487 168.22135174 115.65514433 168.1192376 111.5546875 168.09765625 C110.47832031 168.09443359 109.40195313 168.09121094 108.29296875 168.08789062 C107.16503906 168.07951172 106.03710938 168.07113281 104.875 168.0625 C103.17150391 168.05573242 103.17150391 168.05573242 101.43359375 168.04882812 C98.62234362 168.03701615 95.8111977 168.02054507 93 168 C92.9864499 166.07814454 92.97677937 164.15626146 92.96875 162.234375 C92.96294922 161.16413086 92.95714844 160.09388672 92.95117188 158.99121094 C93.00152584 155.90652722 93.3304983 153.01275765 94 150 C89.47895531 161.32984693 90.95640809 174.88964096 95.48828125 185.953125 C97.62284934 190.25535527 100.07140193 194.19584169 103 198 C102.67 198.66 102.34 199.32 102 200 C91.26576386 189.49415186 86.03368603 176.45132793 85.75 161.625 C85.82737511 155.23510542 86.552074 149.21832505 88 143 C82.88141614 155.19004108 84.7609014 171.85135691 89.515625 183.8984375 C91.62735619 188.31084426 93.89027082 192.22060142 97 196 C97.50015625 196.62261719 98.0003125 197.24523437 98.515625 197.88671875 C102.73133463 202.60381133 107.62913591 205.09852108 113.328125 207.73828125 C116 209 116 209 119 211 C110.02102246 210.71495309 104.88352085 207.5222631 98.3125 201.5625 C97.549375 200.716875 96.78625 199.87125 96 199 C95.27876953 198.24976563 95.27876953 198.24976563 94.54296875 197.484375 C90.24318694 192.82537092 87.48655839 187.81078717 85 182 C84.51660156 180.89591797 84.51660156 180.89591797 84.0234375 179.76953125 C79.16662075 166.58350073 81.96927452 151.9441469 85.125 138.71875 C86.07634644 135.31224503 86.07634644 135.31224503 86 133 C81.79771223 144.85045152 80.59235666 155.46178411 80 168 C71.09 168 62.18 168 53 168 C53 169.65 53 171.3 53 173 C53.66 172.34 54.32 171.68 55 171 C57.61376953 170.77294922 57.61376953 170.77294922 60.8828125 170.8046875 C62.63271484 170.81435547 62.63271484 170.81435547 64.41796875 170.82421875 C65.64128906 170.84097656 66.86460938 170.85773438 68.125 170.875 C69.35605469 170.88402344 70.58710937 170.89304688 71.85546875 170.90234375 C74.90372806 170.92597367 77.95188789 170.96184561 81 171 C81.99 175.29 82.98 179.58 84 184 C73.56487903 184.30242065 63.1295876 184.57948305 52.69271851 184.81471252 C48.6882368 184.90635832 44.68477874 185.00485326 40.68164062 185.14404297 C37.07953101 185.26764477 33.47828518 185.35713326 29.875 185.4375 C28.82973145 185.48390625 27.78446289 185.5303125 26.70751953 185.578125 C19.87972313 185.67919247 19.87972313 185.67919247 17.28955078 183.67944336 C15.9375 182.0546875 15.9375 182.0546875 14 179 C10.6458735 176.65211145 7.01000567 176.46269296 3 176 C3 174.68 3 173.36 3 172 C16.2 172 29.4 172 43 172 C43.33 172.99 43.66 173.98 44 175 C44 174.01 44 173.02 44 172 C44 171.01 44 170.02 44 169 C39.82303477 169.12015874 35.64621811 169.24447944 31.46948242 169.37231445 C30.05480128 169.41506713 28.64008795 169.4567702 27.2253418 169.49731445 C25.16705687 169.55649836 23.10892564 169.61972697 21.05078125 169.68359375 C19.82012939 169.72025146 18.58947754 169.75690918 17.3215332 169.79467773 C11.54024839 170.0693549 5.77075822 170.55609552 0 171 C0 114.57 0 58.14 0 0 Z " fill="#FDFDFD" transform="translate(0,0)"/>
<path d="M0 0 C9.55172414 0 9.55172414 0 14 3 C14.41695129 3.85394852 14.83390259 4.70789703 15.26348877 5.58772278 C16.79950015 8.30837182 16.79950015 8.30837182 19.89520264 8.53398132 C21.66555878 8.47208366 21.66555878 8.47208366 23.47167969 8.40893555 C24.12411652 8.39360275 24.77655334 8.37826996 25.44876099 8.36247253 C26.86500454 8.32671983 28.28099967 8.27977854 29.69655609 8.22299767 C31.94201504 8.13593789 34.18569244 8.08453871 36.43243408 8.04341125 C42.81800315 7.92123535 49.20118009 7.74396386 55.58398438 7.52026367 C59.49059312 7.38584803 63.3958053 7.30097532 67.3042984 7.24592018 C68.78947728 7.21499148 70.27439216 7.16510513 71.75826263 7.09552574 C83.37785958 6.55577082 83.37785958 6.55577082 87.39489746 10.13223267 C89.18573393 12.68047134 90.58823623 15.2287229 92 18 C98.33462151 26.58942504 107.33585003 33.07853154 118 35 C133.21431409 36.23082091 148.34094594 33.38536552 160.28125 23.33984375 C164.93863735 19.217276 169.20379572 14.95118152 173 10 C172.55011719 10.4125 172.10023438 10.825 171.63671875 11.25 C150.59734352 30.13905832 150.59734352 30.13905832 136.26171875 29.44140625 C132.36163855 28.6802507 130.54072336 26.9745054 128 24 C125.3285463 19.14465829 124.44440827 14.55591732 125 9 C127.96261699 6.03738301 131.20387544 6.64281151 135.18359375 6.5859375 C136.47202431 6.5568203 136.47202431 6.5568203 137.78648376 6.52711487 C140.67005214 6.46579292 143.55363261 6.41992711 146.4375 6.375 C148.45719745 6.33685176 150.47689141 6.29851783 152.49658203 6.26000977 C178.99354143 5.7935951 205.50021836 5.90762174 232 6 C232.02536581 13.17162317 232.04287357 20.34323476 232.05493164 27.51489258 C232.05995878 29.9543501 232.0667814 32.39380461 232.07543945 34.83325195 C232.08757583 38.34066511 232.09324455 41.84803841 232.09765625 45.35546875 C232.10281754 46.44522507 232.10797882 47.53498138 232.11329651 48.65776062 C232.11337204 49.67844131 232.11344757 50.69912201 232.11352539 51.75073242 C232.115746 52.64563889 232.11796661 53.54054535 232.12025452 54.46257019 C232 57 232 57 231 62 C154.77 62 78.54 62 0 62 C0 41.54 0 21.08 0 0 Z " fill="#FEFEFE" transform="translate(0,178)"/>
<path d="M0 0 C0.33 0.66 0.66 1.32 1 2 C-10.04870044 19.08561923 -23.63797285 25.55933001 -41.49560547 34.66894531 C-43.26240647 35.60797817 -44.99403587 36.61467822 -46.69580078 37.66699219 C-49 39 -49 39 -51 39 C-51 39.66 -51 40.32 -51 41 C-41.76 41 -32.52 41 -23 41 C-23.33 42.32 -23.66 43.64 -24 45 C-24 44.34 -24 43.68 -24 43 C-34.23 43 -44.46 43 -55 43 C-55.66 44.32 -56.32 45.64 -57 47 C-58.24874188 48.80892515 -59.55956328 50.55858728 -60.87890625 52.31640625 C-62.18551179 54.11886765 -62.18551179 54.11886765 -63 57 C-62.17185822 56.95876432 -62.17185822 56.95876432 -61.32698631 56.91669559 C-47.27427334 56.22566869 -33.2302758 55.75700373 -19.1640625 55.46484375 C-17.17767857 55.42165903 -15.19129967 55.37824299 -13.20492554 55.33460999 C-8.0595972 55.22219033 -2.91420837 55.11284211 2.23120117 55.00421143 C7.51485268 54.89209232 12.79843855 54.77696089 18.08203125 54.66210938 C28.38795996 54.43851625 38.69395535 54.2181792 49 54 C49.66 50.04 50.32 46.08 51 42 C48.89504036 42.06005591 46.79088565 42.14885359 44.6875 42.25 C43.51574219 42.29640625 42.34398437 42.3428125 41.13671875 42.390625 C37.90866867 42.67802376 37.90866867 42.67802376 36.28125 45.03125 C35.8584375 45.6809375 35.435625 46.330625 35 47 C31.8125 47.25 31.8125 47.25 29 47 C28.01 45.02 28.01 45.02 27 43 C24.75165504 42.86473861 22.50097486 42.76789196 20.25 42.6875 C18.37054688 42.60048828 18.37054688 42.60048828 16.453125 42.51171875 C12.82516569 42.66560323 12.82516569 42.66560323 10.546875 45.51953125 C10.03640625 46.33808594 9.5259375 47.15664062 9 48 C6.03 47.505 6.03 47.505 3 47 C3 46.01 3 45.02 3 44 C3.33 44.33 3.66 44.66 4 45 C6.41482413 45.50059916 6.41482413 45.50059916 9 45 C9.39445313 44.18015625 9.78890625 43.3603125 10.1953125 42.515625 C12 40 12 40 15.46875 39.3359375 C16.81249774 39.32268555 18.15673508 39.336621 19.5 39.375 C20.17675781 39.35566406 20.85351562 39.33632812 21.55078125 39.31640625 C23.53125 39.3359375 23.53125 39.3359375 27 40 C28.96875 42.5390625 28.96875 42.5390625 30 45 C32.475 44.505 32.475 44.505 35 44 C35.33 42.35 35.66 40.7 36 39 C42.08676125 38.78329339 48.17371424 38.58636382 54.26171875 38.40795898 C56.33383399 38.34442408 58.40578921 38.27543117 60.47753906 38.20092773 C63.45092285 38.0949387 66.42432472 38.0084191 69.3984375 37.92578125 C70.32868744 37.88842361 71.25893738 37.85106598 72.21737671 37.81257629 C73.50848862 37.78220528 73.50848862 37.78220528 74.82568359 37.7512207 C75.96485733 37.71458061 75.96485733 37.71458061 77.12704468 37.67720032 C77.74511993 37.78372421 78.36319519 37.89024811 79 38 C81.48107164 41.72160746 81.24234952 43.59746433 81.22705078 48.04174805 C81.22734283 48.75419678 81.22763489 49.46664551 81.22793579 50.20068359 C81.22654296 52.55448607 81.21098419 54.9079716 81.1953125 57.26171875 C81.1915822 58.89410733 81.18873531 60.52649815 81.18673706 62.15888977 C81.17910194 66.45466293 81.15945452 70.75030079 81.1373291 75.04602051 C81.11327041 80.20053562 81.10408911 85.35509599 81.09242249 90.50965118 C81.07303002 98.33986155 81.03470673 106.16977505 81 114 C67.8 114 54.6 114 41 114 C41.33 95.52 41.66 77.04 42 58 C23.36221933 58.32649641 23.36221933 58.32649641 4.72460938 58.66210938 C-2.87145362 58.8009213 -10.46752587 58.93864167 -18.0637207 59.07006836 C-24.18456697 59.17603538 -30.30531092 59.28672528 -36.42601204 59.40075874 C-38.76687643 59.44352733 -41.1077731 59.48456348 -43.44869804 59.5238781 C-46.7151675 59.57902624 -49.98147024 59.6402082 -53.24780273 59.70288086 C-54.226035 59.71798706 -55.20426727 59.73309326 -56.21214294 59.74865723 C-57.09700378 59.7668602 -57.98186462 59.78506317 -58.89353943 59.80381775 C-59.66692374 59.81764464 -60.44030806 59.83147154 -61.23712826 59.84571743 C-63.0262542 59.81199903 -63.0262542 59.81199903 -64 61 C-64.62625452 67.01204338 -63.22438914 71.86486174 -60 77 C-57.22337639 79.58995983 -55.28537724 80.4495283 -51.5 80.5 C-40.43847227 80.10959314 -32.00367038 74.09355402 -24 67 C-23.20851562 66.31679687 -22.41703125 65.63359375 -21.6015625 64.9296875 C-19.72145225 63.30025861 -17.85489214 61.65800415 -16 60 C-16 63.78706475 -17.41385631 64.85154468 -19.96191406 67.48095703 C-20.53135742 68.04411621 -21.10080078 68.60727539 -21.6875 69.1875 C-22.56293457 70.05544189 -22.56293457 70.05544189 -23.45605469 70.94091797 C-36.2932475 83.27907781 -50.35601333 88.48271306 -68.0390625 88.34375 C-80.66772263 87.24777161 -90.16813026 80.59881841 -98.26171875 71.3203125 C-100 69 -100 69 -100.72833252 67.04345703 C-101.85877573 64.42350875 -102.83977195 62.88858618 -105 61 C-109.34779955 60.05300706 -113.58249395 60.15414558 -117.99971199 60.33755112 C-120.24919056 60.43078729 -122.49507214 60.47501333 -124.74620056 60.5071106 C-129.51988246 60.58473182 -134.29052044 60.72853864 -139.0625 60.875 C-144.59696042 61.03583783 -150.13069761 61.16953615 -155.66680717 61.25775528 C-157.88193793 61.30409716 -160.09350864 61.38817716 -162.30738831 61.47457886 C-163.66591119 61.50276851 -165.02446777 61.52939272 -166.38305664 61.55419922 C-168.15913048 61.61037918 -168.15913048 61.61037918 -169.97108459 61.66769409 C-173 61 -173 61 -175.27293396 58.0473938 C-175.84286575 57.04175385 -176.41279755 56.03611389 -177 55 C-181.02088279 52.65448504 -185.43918778 52.46381141 -190 52 C-190.04241723 49.66705225 -190.04092937 47.33297433 -190 45 C-186.18286024 41.18286024 -174.23523264 42.91248876 -169.046875 42.90234375 C-166.28116924 42.90517999 -163.51564906 42.92045985 -160.75 42.9375 C-159.31119949 42.94253077 -157.87239726 42.94709086 -156.43359375 42.95117188 C-152.95569249 42.96203936 -149.47785783 42.97921472 -146 43 C-145.34 44.98 -144.68 46.96 -144 49 C-144.66 49 -145.32 49 -146 49 C-146.33 48.34 -146.66 47.68 -147 47 C-166.8 46.505 -166.8 46.505 -187 46 C-187 47.32 -187 48.64 -187 50 C-185.96875 49.9175 -184.9375 49.835 -183.875 49.75 C-179.32106336 50.04380236 -177.49571572 51.13986896 -174 54 C-173.57837082 54.69704041 -173.15674164 55.39408081 -172.72233582 56.11224365 C-171.09758462 58.28183448 -171.09758462 58.28183448 -168.17158508 58.48101807 C-167.0235289 58.47213562 -165.87547272 58.46325317 -164.69262695 58.45410156 C-163.39150467 58.45379944 -162.09038239 58.45349731 -160.74983215 58.45318604 C-159.32930898 58.43275932 -157.90879204 58.41189533 -156.48828125 58.390625 C-155.0352608 58.38316369 -153.58223028 58.37747024 -152.12919617 58.37347412 C-148.30667285 58.35820878 -144.48475847 58.3189202 -140.66247559 58.2746582 C-136.76139565 58.23372432 -132.86021722 58.21546719 -128.95898438 58.1953125 C-121.30571211 58.15242596 -113.65294141 58.08416485 -106 58 C-106.2165625 57.22914063 -106.433125 56.45828125 -106.65625 55.6640625 C-106.9346875 54.66117188 -107.213125 53.65828125 -107.5 52.625 C-107.7784375 51.62726563 -108.056875 50.62953125 -108.34375 49.6015625 C-109 47 -109 47 -109 45 C-113.27137254 45.10967098 -117.54184766 45.2403499 -121.8125 45.375 C-123.02744141 45.4059375 -124.24238281 45.436875 -125.49414062 45.46875 C-126.65751953 45.50742188 -127.82089844 45.54609375 -129.01953125 45.5859375 C-130.09307861 45.6173584 -131.16662598 45.6487793 -132.27270508 45.68115234 C-135.2160765 45.81592307 -135.2160765 45.81592307 -138 48 C-137.67 46.02 -137.34 44.04 -137 42 C-128.09 42 -119.18 42 -110 42 C-110.0825 39.525 -110.165 37.05 -110.25 34.5 C-110.39826477 23.39529365 -108.28893926 12.86561448 -103 3 C-101.67066268 6.98801195 -102.80312472 9.89767074 -103.875 13.8125 C-108.47535654 31.02417879 -109.46329453 48.04548877 -100.28515625 63.9765625 C-94.77409837 72.15270526 -86.83412225 81.19025079 -77 84 C-76.01 84 -75.02 84 -74 84 C-74.75023438 83.68289062 -75.50046875 83.36578125 -76.2734375 83.0390625 C-88.93788594 77.26509482 -96.97355531 69.02804355 -102 56 C-104.70108888 48.70120928 -105.46710737 42.13248701 -105.375 34.375 C-105.38660156 33.39015625 -105.39820312 32.4053125 -105.41015625 31.390625 C-105.38551554 25.23044792 -104.52542169 20.62541022 -102 15 C-100.90717278 18.27848165 -101.10151507 19.03719515 -101.9375 22.25 C-105.03234696 36.79154119 -103.04311775 50.68624375 -95.62890625 63.5078125 C-93.35817974 66.98196961 -90.83049134 69.96733071 -88 73 C-88.45890625 72.27296875 -88.9178125 71.5459375 -89.390625 70.796875 C-97.5096143 57.49264884 -100.79952624 45.53821696 -99 30 C-98.03710498 26.10691582 -96.80209725 22.58005926 -95 19 C-93.84487253 22.46538241 -94.50634446 24.10486005 -95.453125 27.52734375 C-96.50495935 32.28313764 -96.67413119 37.15060651 -97 42 C-93.10287705 41.97715217 -89.20867064 41.8997778 -85.3125 41.8125 C-83.65831055 41.80379883 -83.65831055 41.80379883 -81.97070312 41.79492188 C-75.51870918 41.70797754 -75.51870918 41.70797754 -69.98828125 38.72265625 C-69.33214844 37.82417969 -68.67601563 36.92570312 -68 36 C-55.53324908 22.68645091 -41.23862955 16.21635011 -24.16821289 10.5859375 C-20.20938412 9.25406748 -16.60197691 7.88207031 -13.015625 5.72265625 C-12.02046875 5.15417969 -11.0253125 4.58570313 -10 4 C-9.01 4.495 -9.01 4.495 -8 5 C-13.47596671 8.75801637 -18.82452022 11.18431675 -25.03515625 13.49609375 C-44.62341056 20.84999356 -63.78349493 28.41631886 -73.03515625 48.6640625 C-75.66523828 55.03162953 -77.0629423 61.12845381 -76 68 C-74.0479737 72.60398236 -71.36233457 76.41491285 -67 79 C-67.639375 78.0925 -68.27875 77.185 -68.9375 76.25 C-72.90053851 70.00521204 -72.96395933 62.73630411 -71.50390625 55.5625 C-67.07240377 41.14133938 -56.87333555 32.9906799 -44 26 C-37.39106662 22.55114496 -30.70609743 19.25509449 -24 16 C-23.67 16.66 -23.34 17.32 -23 18 C-23.74552124 18.38369751 -23.74552124 18.38369751 -24.50610352 18.77514648 C-51.16689312 30.80187731 -51.16689312 30.80187731 -68 53 C-70.47281935 61.39762814 -69.10111594 68.42025893 -65 76 C-65.33 75.071875 -65.66 74.14375 -66 73.1875 C-67.95000465 66.12762915 -68.0398008 59.43576888 -64.875 52.75 C-57.30124116 39.39571212 -45.23299981 33.41537064 -31.88623047 26.92138672 C-20.19049609 21.20824906 -10.37078254 14.92988314 -3 4 C-2.00599749 2.66218956 -1.00750366 1.32767246 0 0 Z " fill="#3D3B3B" transform="translate(190,126)"/>
<path d="M0 0 C0.33 0 0.66 0 1 0 C1 20.79 1 41.58 1 63 C-11.21 63 -23.42 63 -36 63 C-36 44.19 -36 25.38 -36 6 C-32.37 6 -28.74 6 -25 6 C-24.75240516 41.04842498 -24.75240516 41.04842498 -27 49 C-26.01 49 -25.02 49 -24 49 C-24 34.81 -24 20.62 -24 6 C-13.605 5.505 -13.605 5.505 -3 5 C-2.01 3.35 -1.02 1.7 0 0 Z " fill="#FCFCFC" transform="translate(270,177)"/>
<path d="M0 0 C2 2 2 2 2.265625 4.390625 C2.23692463 9.64279242 2.12218762 14.09244112 0 19 C0.66 19 1.32 19 2 19 C2.83968645 31.80521834 -2.8579732 40.93283299 -9.79003906 51.20605469 C-24.49730189 73.01173815 -39.27079933 97.64053064 -37 125 C-36.45468783 127.71357722 -35.72893526 130.32723738 -35 133 C-35.44140625 135.21484375 -35.44140625 135.21484375 -36 137 C-36.94011264 135.14715664 -37.87695592 133.29265432 -38.8125 131.4375 C-39.59560547 129.88869141 -39.59560547 129.88869141 -40.39453125 128.30859375 C-48.60989743 111.37814326 -51.41364356 91.58253608 -45.18798828 73.50512695 C-39.11846589 57.24350433 -28.11681785 46.87982654 -15.65429688 35.37841797 C-6.66224437 27.00538357 -0.91142582 20.19292693 -0.375 7.6875 C-0.33632812 6.94693359 -0.29765625 6.20636719 -0.2578125 5.44335938 C-0.16418295 3.62928691 -0.08103149 1.81467884 0 0 Z " fill="#EEEDEE" transform="translate(148,25)"/>
<path d="M0 0 C5.28 0 10.56 0 16 0 C16.495 2.475 16.495 2.475 17 5 C19.97 5.495 19.97 5.495 23 6 C23.4125 5.175 23.825 4.35 24.25 3.5 C28.09681667 0.00289393 31.08589472 0.43989263 36.125 0.43359375 C39.61732504 1.12161974 40.65090083 2.41851683 43 5 C46.04279372 5.66680368 46.04279372 5.66680368 49 5 C49.41765625 4.33484375 49.8353125 3.6696875 50.265625 2.984375 C52 1 52 1 55.13671875 0.609375 C56.30847656 0.65578125 57.48023438 0.7021875 58.6875 0.75 C60.45673828 0.80414063 60.45673828 0.80414063 62.26171875 0.859375 C63.16535156 0.90578125 64.06898438 0.9521875 65 1 C64.85966889 2.97956441 64.7125877 4.95865141 64.5625 6.9375 C64.44068359 8.59072266 64.44068359 8.59072266 64.31640625 10.27734375 C64 13 64 13 63 14 C60.3177955 14.15526906 57.65879203 14.24663563 54.97387695 14.29711914 C54.13124802 14.31677231 53.28861908 14.33642548 52.42045593 14.35667419 C49.60981538 14.42095583 46.79907809 14.47814991 43.98828125 14.53515625 C42.02458423 14.57821072 40.06089511 14.62162742 38.09721375 14.66539001 C33.95850385 14.756594 29.81974126 14.84450279 25.6809082 14.92993164 C20.44005924 15.03820245 15.19937117 15.15267549 9.95870686 15.26950932 C5.88742697 15.35984731 1.81609461 15.44760744 -2.25525856 15.53457451 C-4.18247501 15.57586996 -6.10967978 15.61771489 -8.03687096 15.66017342 C-21.69299802 15.95819462 -35.3407129 16.0521116 -49 16 C-47.89291279 10.00045375 -46.02937428 5.72311914 -41 2 C-35.65111927 0.88849553 -30.47396477 1.14639041 -25.0625 1.4375 C-23.60103488 1.48269995 -22.13943534 1.52375498 -20.67773438 1.56054688 C-17.11567297 1.65918001 -13.55869987 1.81413807 -10 2 C-10 2.66 -10 3.32 -10 4 C-7.03 4.33 -4.06 4.66 -1 5 C-0.67 3.35 -0.34 1.7 0 0 Z " fill="#F2F1F1" transform="translate(176,167)"/>
<path d="M0 0 C4.67686427 1.09998617 7.481687 3.83502572 10.375 7.55859375 C15.26446103 15.91340095 16.99006472 23.97201694 14.67578125 33.41015625 C12.62850626 39.68155557 9.7260896 44.62946085 5.375 49.55859375 C4.86195313 50.15285156 4.34890625 50.74710938 3.8203125 51.359375 C-6.9789543 63.0112155 -22.88544476 68.66555363 -37.625 73.62109375 C-50.19505828 78.08958433 -61.47311127 87.35396808 -68.625 98.55859375 C-68.08875 98.00171875 -67.5525 97.44484375 -67 96.87109375 C-60.18944921 90.23976798 -53.0351761 86.3230208 -44.44726562 82.41503906 C-42.70891357 81.59803223 -41.0163465 80.68565145 -39.328125 79.76953125 C-36.625 78.55859375 -36.625 78.55859375 -33.625 79.55859375 C-34.62917969 80.03167969 -35.63335937 80.50476563 -36.66796875 80.9921875 C-50.83187346 87.78508058 -62.52848573 95.36528645 -72.625 107.55859375 C-71.89667969 106.96949219 -71.16835937 106.38039063 -70.41796875 105.7734375 C-58.88667675 96.62904231 -42.04241499 85.55859375 -26.625 85.55859375 C-26.17962803 98.69706673 -33.43546454 110.73115119 -41.625 120.55859375 C-33.29005867 113.58445917 -26.64948781 106.65941577 -20.625 97.55859375 C-20.295 98.21859375 -19.965 98.87859375 -19.625 99.55859375 C-24.8652493 106.96299796 -30.19955514 114.13314889 -36.625 120.55859375 C-23.35506646 110.51987334 -13.30774826 100.51779108 -5.625 85.55859375 C-4.625 88.55859375 -4.625 88.55859375 -5.9609375 91.34375 C-10.58099807 98.76947954 -15.4921668 105.27049895 -21.625 111.55859375 C-22.24503906 112.21730469 -22.86507812 112.87601562 -23.50390625 113.5546875 C-27.2327805 117.43371776 -31.21370255 120.49294787 -35.625 123.55859375 C-26.95664794 119.55945218 -19.05403913 115.88118129 -12.2265625 109.02734375 C-10.625 107.55859375 -10.625 107.55859375 -8.625 107.55859375 C-8.35300781 106.98238281 -8.08101563 106.40617187 -7.80078125 105.8125 C-6.6224321 103.55367122 -5.28421211 101.57357654 -3.8125 99.49609375 C5.7576325 85.23426214 7.9033237 70.26644818 9.375 53.55859375 C9.705 53.55859375 10.035 53.55859375 10.375 53.55859375 C11.27959103 73.63548904 7.90686906 92.4942553 -5.875 107.99609375 C-14.26939731 117.15954299 -25.57435251 122.16751497 -36.64620972 127.35324097 C-53.02134534 135.0472594 -68.64888385 142.64486277 -81.625 155.55859375 C-82.285 155.22859375 -82.945 154.89859375 -83.625 154.55859375 C-77.9155285 147.63851798 -71.62932893 142.12730957 -64.625 136.55859375 C-47.91999234 122.93672509 -33.59019558 109.47940404 -28.625 87.55859375 C-32.9074253 89.23833816 -37.17732521 90.94593554 -41.43896484 92.67773438 C-42.87098127 93.25476311 -44.30613461 93.82408091 -45.74462891 94.38476562 C-62.12784212 100.77709303 -74.34084007 111.16923391 -81.625 127.55859375 C-81.955 127.55859375 -82.285 127.55859375 -82.625 127.55859375 C-83.8811933 114.74542212 -76.21803828 102.10072113 -68.8203125 92.125 C-56.76372926 77.69211924 -40.0572315 70.84937247 -23.00146484 64.13256836 C-7.83919199 58.14204212 3.48153208 51.65856033 10.62890625 36.35546875 C11.59083414 34.03878378 12.13056145 32.06408889 12.375 29.55859375 C12.43816406 28.92566406 12.50132812 28.29273437 12.56640625 27.640625 C12.99318909 19.86216362 10.609128 12.8440761 6.25 6.43359375 C3.9431958 4.12678955 3.04287342 3.58366407 -0.2265625 3.4609375 C-1.22429687 3.47253906 -2.22203125 3.48414063 -3.25 3.49609375 C-4.75433594 3.50962891 -4.75433594 3.50962891 -6.2890625 3.5234375 C-7.44535156 3.54083984 -7.44535156 3.54083984 -8.625 3.55859375 C-8.625 4.21859375 -8.625 4.87859375 -8.625 5.55859375 C-9.615 5.06359375 -9.615 5.06359375 -10.625 4.55859375 C-7.64702321 0.4153217 -4.87429287 -0.26455866 0 0 Z " fill="#323031" transform="translate(207.625,-0.55859375)"/>
<path d="M0 0 C0.99 0.495 0.99 0.495 2 1 C-3.47596671 4.75801637 -8.82452022 7.18431675 -15.03515625 9.49609375 C-34.62341056 16.84999356 -53.78349493 24.41631886 -63.03515625 44.6640625 C-65.66701707 51.03593606 -67.05613735 57.12433031 -66 64 C-64.1525913 68.38187022 -61.54413185 71.47952606 -58.125 74.75 C-57.42375 75.4925 -56.7225 76.235 -56 77 C-56.3671875 79.140625 -56.3671875 79.140625 -57 81 C-69.31203907 78.81560597 -78.07506153 73.84115848 -86 64 C-92.64035969 53.38940421 -95.52258918 42.80528884 -95.375 30.375 C-95.38660156 29.39015625 -95.39820312 28.4053125 -95.41015625 27.390625 C-95.38551554 21.23044792 -94.52542169 16.62541022 -92 11 C-90.90717278 14.27848165 -91.10151507 15.03719515 -91.9375 18.25 C-95.03234696 32.79154119 -93.04311775 46.68624375 -85.62890625 59.5078125 C-83.35817974 62.98196961 -80.83049134 65.96733071 -78 69 C-78.45890625 68.27296875 -78.9178125 67.5459375 -79.390625 66.796875 C-87.5096143 53.49264884 -90.79952624 41.53821696 -89 26 C-88.03710498 22.10691582 -86.80209725 18.58005926 -85 15 C-83.84487253 18.46538241 -84.50634446 20.10486005 -85.453125 23.52734375 C-86.50495935 28.28313764 -86.67413119 33.15060651 -87 38 C-83.10287705 37.97715217 -79.20867064 37.8997778 -75.3125 37.8125 C-73.65831055 37.80379883 -73.65831055 37.80379883 -71.97070312 37.79492188 C-65.51870918 37.70797754 -65.51870918 37.70797754 -59.98828125 34.72265625 C-59.33214844 33.82417969 -58.67601562 32.92570312 -58 32 C-45.53324908 18.68645091 -31.23862955 12.21635011 -14.16821289 6.5859375 C-10.20938412 5.25406748 -6.60197691 3.88207031 -3.015625 1.72265625 C-2.02046875 1.15417969 -1.0253125 0.58570313 0 0 Z " fill="#343132" transform="translate(180,130)"/>
<path d="M0 0 C0.85223145 0.06638672 1.70446289 0.13277344 2.58251953 0.20117188 C4.68925525 3.36127545 4.9014001 4.36029712 4.95751953 8.01367188 C4.98587891 8.84511719 5.01423828 9.6765625 5.04345703 10.53320312 C4.58251953 13.20117188 4.58251953 13.20117188 0.58251953 19.20117188 C-6.34748047 19.20117188 -13.27748047 19.20117188 -20.41748047 19.20117188 C-20.08748047 33.39117187 -19.75748047 47.58117187 -19.41748047 62.20117188 C-21.39748047 62.69617188 -21.39748047 62.69617188 -23.41748047 63.20117188 C-23.97998047 61.26367188 -23.97998047 61.26367188 -24.41748047 59.20117188 C-24.08748047 58.87117188 -23.75748047 58.54117188 -23.41748047 58.20117188 C-23.18574542 55.32038346 -23.01365248 52.4581455 -22.88232422 49.57226562 C-22.83934708 48.70803482 -22.79636993 47.84380402 -22.75209045 46.9533844 C-22.61529635 44.18200935 -22.48507222 41.41036886 -22.35498047 38.63867188 C-22.26361483 36.76430185 -22.1718236 34.88995251 -22.07958984 33.015625 C-21.85394007 28.41103326 -21.63418363 23.80619299 -21.41748047 19.20117188 C-25.04748047 19.20117188 -28.67748047 19.20117188 -32.41748047 19.20117188 C-32.08748047 37.68117188 -31.75748047 56.16117188 -31.41748047 75.20117188 C-33.39748047 75.69617188 -33.39748047 75.69617188 -35.41748047 76.20117188 C-35.08748047 57.72117187 -34.75748047 39.24117187 -34.41748047 20.20117188 C-45.63748047 20.20117188 -56.85748047 20.20117188 -68.41748047 20.20117188 C-68.41748047 19.87117188 -68.41748047 19.54117188 -68.41748047 19.20117188 C-70.39748047 18.87117188 -72.37748047 18.54117188 -74.41748047 18.20117188 C-74.41748047 17.87117188 -74.41748047 17.54117188 -74.41748047 17.20117188 C-58.90748047 16.87117188 -43.39748047 16.54117188 -27.41748047 16.20117188 C-26.75748047 12.24117187 -26.09748047 8.28117188 -25.41748047 4.20117188 C-27.52244011 4.26122778 -29.62659481 4.35002546 -31.72998047 4.45117188 C-33.48761719 4.52078125 -33.48761719 4.52078125 -35.28076172 4.59179688 C-38.5088118 4.87919564 -38.5088118 4.87919564 -40.13623047 7.23242188 C-40.55904297 7.88210937 -40.98185547 8.53179687 -41.41748047 9.20117188 C-44.60498047 9.45117188 -44.60498047 9.45117188 -47.41748047 9.20117188 C-48.07748047 7.88117188 -48.73748047 6.56117188 -49.41748047 5.20117188 C-51.66582543 5.06591048 -53.91650561 4.96906383 -56.16748047 4.88867188 C-58.04693359 4.80166016 -58.04693359 4.80166016 -59.96435547 4.71289062 C-63.59231478 4.8667751 -63.59231478 4.8667751 -65.87060547 7.72070312 C-66.38107422 8.53925781 -66.89154297 9.3578125 -67.41748047 10.20117188 C-70.38748047 9.70617187 -70.38748047 9.70617187 -73.41748047 9.20117188 C-73.41748047 8.21117187 -73.41748047 7.22117188 -73.41748047 6.20117188 C-73.08748047 6.53117188 -72.75748047 6.86117187 -72.41748047 7.20117188 C-70.00265634 7.70177104 -70.00265634 7.70177104 -67.41748047 7.20117188 C-67.02302734 6.38132813 -66.62857422 5.56148437 -66.22216797 4.71679688 C-64.41748047 2.20117188 -64.41748047 2.20117188 -60.94873047 1.53710938 C-59.60498273 1.52385742 -58.26074539 1.53779288 -56.91748047 1.57617188 C-56.24072266 1.55683594 -55.56396484 1.5375 -54.86669922 1.51757812 C-52.88623047 1.53710938 -52.88623047 1.53710938 -49.41748047 2.20117188 C-47.44873047 4.74023438 -47.44873047 4.74023438 -46.41748047 7.20117188 C-44.76748047 6.87117187 -43.11748047 6.54117188 -41.41748047 6.20117188 C-41.08748047 4.55117187 -40.75748047 2.90117187 -40.41748047 1.20117188 C-35.25800378 1.05770469 -30.09849869 0.9153224 -24.93896484 0.77392578 C-23.18537598 0.72571826 -21.4317951 0.67721929 -19.67822266 0.62841797 C-17.15122511 0.55814392 -14.62420027 0.48893345 -12.09716797 0.41992188 C-11.31880585 0.3980481 -10.54044373 0.37617432 -9.73849487 0.3536377 C-8.28655105 0.31437195 -6.83446099 0.28006747 -5.38226318 0.25170898 C-3.58680844 0.20552724 -1.79294485 0.10554269 0 0 Z " fill="#383737" transform="translate(266.41748046875,163.798828125)"/>
<path d="M0 0 C0.99 0.495 0.99 0.495 2 1 C0.23074887 9.92667614 -6.94672411 16.79031164 -14 22 C-20.48109791 26.134633 -27.22185691 29.64815436 -34.13085938 32.99951172 C-46.6198517 39.0749973 -57.01373822 45.46047678 -63.16796875 58.46875 C-65.48312209 65.51203339 -64.09147157 73.07200042 -62 80 C-66.14843842 76.4046867 -67.62599236 73.22439919 -68.2578125 67.77734375 C-68.67373259 59.02915784 -66.25702814 51.26413901 -60.5625 44.5625 C-54.53853755 38.09128279 -47.20845768 34.13006537 -39.5625 29.875 C-37.88317383 28.92560547 -37.88317383 28.92560547 -36.16992188 27.95703125 C-35.08388672 27.34988281 -33.99785156 26.74273437 -32.87890625 26.1171875 C-31.8947876 25.56659668 -30.91066895 25.01600586 -29.89672852 24.44873047 C-26.9843673 22.99218168 -24.11023954 21.95127237 -21 21 C-33.18290708 21 -50.4975826 33.7315711 -59.0625 41.98828125 C-66.67250403 50.1531814 -69.32672055 58.22070206 -69.22265625 69.28125 C-68.76102896 74.91796221 -66.00087629 79.28433726 -63 84 C-66.09010211 82.64891639 -67.96910153 81.20982067 -70.125 78.625 C-70.62257813 78.03976563 -71.12015625 77.45453125 -71.6328125 76.8515625 C-75.43839447 71.6977172 -75.70527896 67.26816676 -75 61 C-71.44034346 46.78159917 -63.24449173 35.85123777 -51.0625 27.9375 C-41.22549275 22.12420487 -30.53381956 18.33099749 -19.875 14.3125 C-12.15045541 11.34596667 -7.17902936 8.51077977 -2 2 C-1.34 2 -0.68 2 0 2 C0 1.34 0 0.68 0 0 Z " fill="#EEEEEE" transform="translate(188,123)"/>
<path d="M0 0 C1.07878418 0.01047363 2.15756836 0.02094727 3.26904297 0.03173828 C5.01894531 0.04140625 5.01894531 0.04140625 6.80419922 0.05126953 C8.02751953 0.06802734 9.25083984 0.08478516 10.51123047 0.10205078 C11.74228516 0.11107422 12.97333984 0.12009766 14.24169922 0.12939453 C17.28995852 0.15302445 20.33811836 0.18889639 23.38623047 0.22705078 C24.37623047 4.51705078 25.36623047 8.80705078 26.38623047 13.22705078 C15.95110949 13.52947143 5.51581807 13.80653383 -4.92105103 14.04176331 C-8.92553273 14.1334091 -12.92899079 14.23190404 -16.93212891 14.37109375 C-20.53423852 14.49469555 -24.13548435 14.58418404 -27.73876953 14.66455078 C-28.78403809 14.71095703 -29.82930664 14.75736328 -30.90625 14.80517578 C-37.7340464 14.90624325 -37.7340464 14.90624325 -40.32421875 12.90649414 C-41.67626953 11.28173828 -41.67626953 11.28173828 -43.61376953 8.22705078 C-46.96789603 5.87916223 -50.60376386 5.68974374 -54.61376953 5.22705078 C-54.61376953 3.90705078 -54.61376953 2.58705078 -54.61376953 1.22705078 C-41.41376953 1.22705078 -28.21376953 1.22705078 -14.61376953 1.22705078 C-14.11876953 2.71205078 -14.11876953 2.71205078 -13.61376953 4.22705078 C-12.15361662 3.94463437 -10.6956716 3.65078464 -9.23876953 3.35205078 C-8.42666016 3.18962891 -7.61455078 3.02720703 -6.77783203 2.85986328 C-3.79460236 1.98751092 -3.22003569 0.27971541 0 0 Z " fill="#EAE9E9" transform="translate(57.61376953125,170.77294921875)"/>
<path d="M0 0 C0 0.33 0 0.66 0 1 C-4.29 1 -8.58 1 -13 1 C-13.33 1.66 -13.66 2.32 -14 3 C-15.35898077 3.87114152 -16.7188417 4.74092811 -18.08203125 5.60546875 C-20.46679912 7.33940384 -22.49627345 9.33539887 -24.625 11.375 C-32.40906495 18.53303241 -41.79798661 23.49182964 -52.4921875 23.3359375 C-56.58104301 22.78820919 -58.36642542 21.08320926 -61 18 C-63.6714537 13.14465829 -64.55559173 8.55591732 -64 3 C-61.61068958 0.61068958 -61.06288064 0.73794563 -57.80419922 0.68115234 C-56.50045853 0.65134781 -56.50045853 0.65134781 -55.17037964 0.62094116 C-53.75186203 0.60361435 -53.75186203 0.60361435 -52.3046875 0.5859375 C-50.83432541 0.55688828 -50.83432541 0.55688828 -49.33425903 0.5272522 C-46.18126251 0.46737035 -43.0282237 0.42119403 -39.875 0.375 C-37.80336936 0.33679834 -35.73175424 0.29774534 -33.66015625 0.2578125 C-22.43940025 0.05095052 -11.22261065 -0.05560846 0 0 Z " fill="#F8F8F8" transform="translate(189,184)"/>
<path d="M0 0 C0.33 0 0.66 0 1 0 C1.92353869 12.23688758 -4.19768668 21.43628346 -10.79003906 31.20605469 C-25.49730189 53.01173815 -40.27079933 77.64053064 -38 105 C-37.45468783 107.71357722 -36.72893526 110.32723738 -36 113 C-36.44140625 115.21484375 -36.44140625 115.21484375 -37 117 C-37.94011264 115.14715664 -38.87695592 113.29265432 -39.8125 111.4375 C-40.33457031 110.40496094 -40.85664062 109.37242187 -41.39453125 108.30859375 C-49.60989743 91.37814326 -52.41364356 71.58253608 -46.18798828 53.50512695 C-39.1089107 34.53867776 -23.20236357 18.85360032 -7 7 C-8.61701951 11.0815131 -11.54314939 13.80546998 -14.625 16.8125 C-15.16479492 17.3472998 -15.70458984 17.88209961 -16.26074219 18.43310547 C-19.16457245 21.28758621 -22.12236944 24.01448764 -25.25 26.625 C-37.2272011 36.93732045 -43.96186746 50.42657701 -46 66 C-46.1986636 70.01741937 -46.19862806 73.98329923 -46 78 C-45.67 78 -45.34 78 -45 78 C-44.93683594 77.22398438 -44.87367187 76.44796875 -44.80859375 75.6484375 C-42.95436655 59.29220177 -33.4818316 45.35812441 -23 33 C-22.01 32.505 -22.01 32.505 -21 32 C-22.59750519 36.83922626 -25.37073924 40.53617117 -28.3125 44.625 C-36.47207276 56.24103084 -41.42891055 67.14607088 -41.125 81.5 C-41.11146484 82.73363281 -41.11146484 82.73363281 -41.09765625 83.9921875 C-41.07436865 85.99492083 -41.03850959 87.99750154 -41 90 C-40.68869141 88.5459375 -40.68869141 88.5459375 -40.37109375 87.0625 C-38.05178814 76.76701419 -34.63382892 67.47087522 -30 58 C-29.69046387 57.36707031 -29.38092773 56.73414063 -29.06201172 56.08203125 C-23.84494972 45.57751617 -17.49958733 35.93064712 -10.82470703 26.30517578 C-5.65905251 18.80707578 -2.95895319 12.64059268 -1.47265625 3.703125 C-1 1 -1 1 0 0 Z " fill="#323031" transform="translate(149,45)"/>
<path d="M0 0 C0.33 0 0.66 0 1 0 C1.90459103 20.07689529 -1.46813094 38.93566155 -15.25 54.4375 C-23.64439731 63.60094924 -34.94935251 68.60892122 -46.02120972 73.79464722 C-62.39634534 81.48866565 -78.02388385 89.08626902 -91 102 C-91.66 101.67 -92.32 101.34 -93 101 C-88.1417973 95.11169128 -82.98847785 90.14892653 -77.015625 85.40234375 C-73.64845603 82.71994878 -70.34965861 79.96683326 -67.0625 77.1875 C-66.51891846 76.73133301 -65.97533691 76.27516602 -65.4152832 75.80517578 C-63.09312321 73.84285837 -60.89636692 71.88855258 -58.82421875 69.66015625 C-58.22222656 69.11230469 -57.62023437 68.56445312 -57 68 C-53.75 68.25 -53.75 68.25 -51 69 C-51.66 70.32 -52.32 71.64 -53 73 C-52.33355469 72.45472656 -51.66710937 71.90945312 -50.98046875 71.34765625 C-50.05878906 70.59355469 -49.13710937 69.83945313 -48.1875 69.0625 C-47.18203125 68.23492187 -46.1765625 67.40734375 -45.140625 66.5546875 C-43.17266548 64.94222252 -41.18803512 63.37420387 -39.171875 61.8203125 C-28.62783474 53.5959611 -20.8300531 44.03929665 -15 32 C-14 35 -14 35 -15.3359375 37.78515625 C-19.95599807 45.21088579 -24.8671668 51.7119052 -31 58 C-31.62003906 58.65871094 -32.24007812 59.31742188 -32.87890625 59.99609375 C-36.6077805 63.87512401 -40.58870255 66.93435412 -45 70 C-36.33164794 66.00085843 -28.42903913 62.32258754 -21.6015625 55.46875 C-20 54 -20 54 -18 54 C-17.72800781 53.42378906 -17.45601563 52.84757812 -17.17578125 52.25390625 C-15.9974321 49.99507747 -14.65921211 48.01498279 -13.1875 45.9375 C-3.6173675 31.67566839 -1.4716763 16.70785443 0 0 Z " fill="#221F20" transform="translate(217,53)"/>
<path d="M0 0 C0.495 0.99 0.495 0.99 1 2 C-10.04870044 19.08561923 -23.63797285 25.55933001 -41.49560547 34.66894531 C-43.26240647 35.60797817 -44.99403587 36.61467822 -46.69580078 37.66699219 C-49 39 -49 39 -51 39 C-51 39.66 -51 40.32 -51 41 C-41.76 41 -32.52 41 -23 41 C-23.33 42.32 -23.66 43.64 -24 45 C-24 44.34 -24 43.68 -24 43 C-34.23 43 -44.46 43 -55 43 C-55.66 44.32 -56.32 45.64 -57 47 C-58.24874188 48.80892515 -59.55956328 50.55858728 -60.87890625 52.31640625 C-62.18551179 54.11886765 -62.18551179 54.11886765 -63 57 C-61.36393799 56.8928064 -61.36393799 56.8928064 -59.69482422 56.78344727 C-40.15089849 55.64436686 -20.58214911 55.88506456 -1.01373291 55.93133545 C3.84761109 55.94170955 8.70896053 55.94616275 13.5703125 55.95117188 C23.04688899 55.96178016 32.52344176 55.97876464 42 56 C42 56.33 42 56.66 42 57 C33.79810016 57.29402254 25.59602123 57.58275649 17.3937912 57.8674202 C16.05264759 57.91397631 14.71150682 57.96061422 13.37036896 58.00733566 C-7.59865166 58.73720604 -28.56575066 59.32226862 -49.54541016 59.65795898 C-50.91234009 59.68241592 -50.91234009 59.68241592 -52.30688477 59.70736694 C-53.99789567 59.73755226 -55.68898377 59.76377401 -57.38012695 59.78530884 C-60.98950165 59.51941593 -60.98950165 59.51941593 -64 61 C-64.17548271 65.47480899 -63.85690932 69.60833973 -63 74 C-63.99 74.495 -63.99 74.495 -65 75 C-67.72434505 68.69995206 -68.30247305 61.845929 -66.08984375 55.3125 C-58.98835648 40.33315708 -46.16588178 33.86927228 -31.88623047 26.92138672 C-20.19049609 21.20824906 -10.37078254 14.92988314 -3 4 C-2.00599749 2.66218956 -1.00750366 1.32767246 0 0 Z " fill="#2B2829" transform="translate(190,126)"/>
<path d="M0 0 C1.43880051 0.00503077 2.87760274 0.00959086 4.31640625 0.01367188 C7.79430751 0.02453936 11.27214217 0.04171472 14.75 0.0625 C15.41 2.0425 16.07 4.0225 16.75 6.0625 C16.09 6.0625 15.43 6.0625 14.75 6.0625 C14.255 5.0725 14.255 5.0725 13.75 4.0625 C-6.05 3.5675 -6.05 3.5675 -26.25 3.0625 C-26.25 4.3825 -26.25 5.7025 -26.25 7.0625 C-24.703125 6.93875 -24.703125 6.93875 -23.125 6.8125 C-18.57106336 7.10630236 -16.74571572 8.20236896 -13.25 11.0625 C-12.81701096 11.75764709 -12.38402191 12.45279419 -11.93791199 13.16900635 C-10.37048627 15.30969144 -10.37048627 15.30969144 -7.64936829 15.58148193 C-6.08716805 15.5948056 -6.08716805 15.5948056 -4.4934082 15.60839844 C-3.31241043 15.62811707 -2.13141266 15.64783569 -0.91462708 15.66815186 C0.36044205 15.66938049 1.63551117 15.67060913 2.94921875 15.671875 C4.90720146 15.69667938 4.90720146 15.69667938 6.90473938 15.72198486 C10.37188576 15.76568516 13.83877903 15.78566289 17.30615234 15.80072021 C20.84553003 15.82028207 24.38463397 15.86225292 27.92382812 15.90234375 C34.86578229 15.97767417 41.80772644 16.02794827 48.75 16.0625 C48.75 16.3925 48.75 16.7225 48.75 17.0625 C37.12311683 18.13032731 25.50271381 18.37868733 13.83300781 18.4675293 C11.67627193 18.48935927 9.51963012 18.5237456 7.36328125 18.57006836 C4.21835765 18.63669408 1.07521436 18.66443275 -2.0703125 18.68359375 C-3.03381622 18.71142441 -3.99731995 18.73925507 -4.99002075 18.76792908 C-7.55036115 18.75999631 -9.77089977 18.70469412 -12.25 18.0625 C-14.74560547 15.10571289 -14.74560547 15.10571289 -16.25 12.0625 C-20.27088279 9.71698504 -24.68918778 9.52631141 -29.25 9.0625 C-29.29241723 6.72955225 -29.29092937 4.39547433 -29.25 2.0625 C-24.32026414 -2.86723586 -7.12567456 -0.04390383 0 0 Z " fill="#3D3A3B" transform="translate(29.25,168.9375)"/>
<path d="M0 0 C7.92 0 15.84 0 24 0 C21 10 21 10 19 13 C16.37302936 13.22137393 13.99106036 13.28162025 11.375 13.1875 C10.66859375 13.17396484 9.9621875 13.16042969 9.234375 13.14648438 C7.48925872 13.1111104 5.74453392 13.05730221 4 13 C3.32942113 11.2097939 2.6636531 9.41778511 2 7.625 C1.62875 6.62726563 1.2575 5.62953125 0.875 4.6015625 C0 2 0 2 0 0 Z " fill="#F1F1F1" transform="translate(92,170)"/>
<path d="M0 0 C1.32933732 3.98801195 0.19687528 6.89767074 -0.875 10.8125 C-4.96655754 26.12056873 -5.9302606 40.15080874 0.00390625 55.05859375 C1 58 1 58 0 61 C-0.66 60.01 -1.32 59.02 -2 58 C-6.92235679 56.95028103 -11.88420532 56.80589929 -16.90234375 56.68359375 C-17.98619102 56.6524221 -17.98619102 56.6524221 -19.0919342 56.62062073 C-21.3737037 56.55584574 -23.65557667 56.4965797 -25.9375 56.4375 C-27.49545291 56.39424603 -29.0533958 56.35062969 -30.61132812 56.30664062 C-34.40744922 56.20023961 -38.20367314 56.09877501 -42 56 C-42 55.67 -42 55.34 -42 55 C-29.13 55 -16.26 55 -3 55 C-3.99 51.37 -4.98 47.74 -6 44 C-6 43.34 -6 42.68 -6 42 C-10.27137254 42.10967098 -14.54184766 42.2403499 -18.8125 42.375 C-20.02744141 42.4059375 -21.24238281 42.436875 -22.49414062 42.46875 C-24.23920898 42.52675781 -24.23920898 42.52675781 -26.01953125 42.5859375 C-27.09307861 42.6173584 -28.16662598 42.6487793 -29.27270508 42.68115234 C-32.2160765 42.81592307 -32.2160765 42.81592307 -35 45 C-34.505 42.03 -34.505 42.03 -34 39 C-25.09 39 -16.18 39 -7 39 C-7.0825 36.525 -7.165 34.05 -7.25 31.5 C-7.39826477 20.39529365 -5.28893926 9.86561448 0 0 Z " fill="#484647" transform="translate(87,129)"/>
<path d="M0 0 C0.99 0.495 0.99 0.495 2 1 C-3.47596671 4.75801637 -8.82452022 7.18431675 -15.03515625 9.49609375 C-35.7239003 17.26314376 -53.75207111 25.15926 -64 46 C-65.125 42.25 -65.125 42.25 -64 40 C-71.92 40 -79.84 40 -88 40 C-87.67 42.31 -87.34 44.62 -87 47 C-89.66311019 44.33688981 -89.31423088 42.25307048 -89.37890625 38.62426758 C-89.37761719 37.77888428 -89.37632813 36.93350098 -89.375 36.0625 C-89.37628906 35.20744873 -89.37757812 34.35239746 -89.37890625 33.47143555 C-89.26668106 26.73091016 -88.05416437 21.06742476 -85 15 C-83.84487253 18.46538241 -84.50634446 20.10486005 -85.453125 23.52734375 C-86.50495935 28.28313764 -86.67413119 33.15060651 -87 38 C-83.10287705 37.97715217 -79.20867064 37.8997778 -75.3125 37.8125 C-73.65831055 37.80379883 -73.65831055 37.80379883 -71.97070312 37.79492188 C-65.51870918 37.70797754 -65.51870918 37.70797754 -59.98828125 34.72265625 C-59.33214844 33.82417969 -58.67601563 32.92570312 -58 32 C-45.53324908 18.68645091 -31.23862955 12.21635011 -14.16821289 6.5859375 C-10.20938412 5.25406748 -6.60197691 3.88207031 -3.015625 1.72265625 C-2.02046875 1.15417969 -1.0253125 0.58570313 0 0 Z " fill="#322F30" transform="translate(180,130)"/>
<path d="M0 0 C1.48831242 0.00667405 2.97660807 0.01863442 4.46484375 0.03515625 C5.22345703 0.03966797 5.98207031 0.04417969 6.76367188 0.04882812 C8.64326246 0.06064945 10.52281274 0.07858547 12.40234375 0.09765625 C12.07234375 4.71765625 11.74234375 9.33765625 11.40234375 14.09765625 C5.46234375 14.09765625 -0.47765625 14.09765625 -6.59765625 14.09765625 C-7.73158482 6.16015625 -7.73158482 6.16015625 -4.59765625 1.09765625 C-3.59765625 0.09765625 -3.59765625 0.09765625 0 0 Z " fill="#F3F3F3" transform="translate(249.59765625,166.90234375)"/>
<path d="M0 0 C15.51 0 31.02 0 47 0 C47.495 0.99 47.495 0.99 48 2 C46.02 2 44.04 2 42 2 C42.33 20.48 42.66 38.96 43 58 C41.02 58.495 41.02 58.495 39 59 C39.33 40.52 39.66 22.04 40 3 C28.78 3 17.56 3 6 3 C6 2.67 6 2.34 6 2 C3.03 1.505 3.03 1.505 0 1 C0 0.67 0 0.34 0 0 Z " fill="#525051" transform="translate(192,181)"/>
<path d="M0 0 C0 3.78706475 -1.41385631 4.85154468 -3.96191406 7.48095703 C-4.53135742 8.04411621 -5.10080078 8.60727539 -5.6875 9.1875 C-6.27112305 9.76612793 -6.85474609 10.34475586 -7.45605469 10.94091797 C-15.72277716 18.88627992 -26.52610943 27.13465887 -38.44140625 26.9453125 C-41.64501759 26.71722367 -44.81487109 26.40860232 -48 26 C-48 24.02 -48 22.04 -48 20 C-42.25 18.875 -42.25 18.875 -40 20 C-30.79984413 21.28289026 -22.83228686 18.33790913 -15.296875 13.1328125 C-12.79256584 11.15855651 -10.38629925 9.1149475 -8 7 C-7.20851562 6.31679687 -6.41703125 5.63359375 -5.6015625 4.9296875 C-3.72145225 3.30025861 -1.85489214 1.65800415 0 0 Z " fill="#282526" transform="translate(174,186)"/>
<path d="M0 0 C0.44537197 13.13847298 -6.81046454 25.17255744 -15 35 C-6.66505867 28.02586542 -0.02448781 21.10082202 6 12 C6.33 12.66 6.66 13.32 7 14 C0.99998219 22.47794724 -4.78509169 30.56128808 -13 37 C-14.37368345 38.63356951 -15.71937515 40.2925002 -17 42 C-17.66 41.67 -18.32 41.34 -19 41 C-18.34 40.01 -17.68 39.02 -17 38 C-17.83333333 35.83333333 -17.83333333 35.83333333 -20 35 C-19.5153125 34.5359375 -19.030625 34.071875 -18.53125 33.59375 C-13.88207084 28.80151917 -10.59053195 23.8685639 -7.625 17.9375 C-7.29177734 17.2775 -6.95855469 16.6175 -6.61523438 15.9375 C-4.41579926 11.37604319 -3.09134001 6.94410096 -2 2 C-3.03640625 2.45632812 -4.0728125 2.91265625 -5.140625 3.3828125 C-6.51007038 3.9643578 -7.87988153 4.54504228 -9.25 5.125 C-9.93191406 5.42792969 -10.61382812 5.73085937 -11.31640625 6.04296875 C-13.328125 6.8828125 -13.328125 6.8828125 -17 8 C-19.22949219 7.06982422 -19.22949219 7.06982422 -21 6 C-17.87647773 4.99534271 -14.75095147 3.99707073 -11.625 3 C-10.73554688 2.71382813 -9.84609375 2.42765625 -8.9296875 2.1328125 C-7.65351563 1.72675781 -7.65351563 1.72675781 -6.3515625 1.3125 C-5.56604004 1.06113281 -4.78051758 0.80976562 -3.97119141 0.55078125 C-2 0 -2 0 0 0 Z " fill="#2F2D2E" transform="translate(181,85)"/>
<path d="M0 0 C0 3 0 3 -2.5625 5.890625 C-3.70024836 7.01863035 -4.84662365 8.13797914 -6 9.25 C-6.89368286 10.12942261 -6.89368286 10.12942261 -7.80541992 11.02661133 C-10.88294114 14.03317383 -14.00978737 16.9275177 -17.3125 19.6875 C-29.26999911 29.95836239 -35.96872839 43.47900157 -38 59 C-38.1986636 63.01741937 -38.19862806 66.98329923 -38 71 C-37.34 71 -36.68 71 -36 71 C-36 73.64 -36 76.28 -36 79 C-36.66 79 -37.32 79 -38 79 C-38.66 80.32 -39.32 81.64 -40 83 C-43.03744646 64.25248212 -41.10860443 45.95081662 -30 30 C-22.46809912 20.65005408 -13.46132383 12.62500451 -4.63476562 4.52709961 C-3.05428666 3.05071133 -1.51980782 1.53854596 0 0 Z " fill="#3E3A3B" transform="translate(141,52)"/>
<path d="M0 0 C-1.11117187 0.53367187 -2.22234375 1.06734375 -3.3671875 1.6171875 C-16.25125162 7.99110359 -25.07414854 14.99229951 -32.52734375 27.5546875 C-33.89545845 29.82641112 -35.37157914 31.90978815 -37 34 C-37.9651401 24.15557099 -33.39609291 15.58591753 -29 7 C-27.35 7.99 -25.7 8.98 -24 10 C-24.66 11.32 -25.32 12.64 -26 14 C-25.21689453 13.23816406 -25.21689453 13.23816406 -24.41796875 12.4609375 C-18.74831388 7.15866832 -12.94588463 3.43138574 -6 0 C-3.50907189 -1.24546405 -2.58919267 -0.7767578 0 0 Z " fill="#302D2E" transform="translate(162,93)"/>
<path d="M0 0 C0.99 0 1.98 0 3 0 C3.01417969 1.12535156 3.02835937 2.25070313 3.04296875 3.41015625 C3.40880405 17.62168999 5.67689791 30.66920018 15 42 C15.50015625 42.62261719 16.0003125 43.24523437 16.515625 43.88671875 C20.73133463 48.60381133 25.62913591 51.09852108 31.328125 53.73828125 C34 55 34 55 37 57 C28.02102246 56.71495309 22.88352085 53.5222631 16.3125 47.5625 C15.549375 46.716875 14.78625 45.87125 14 45 C13.51917969 44.49984375 13.03835937 43.9996875 12.54296875 43.484375 C8.24318694 38.82537092 5.48655839 33.81078717 3 28 C2.67773438 27.26394531 2.35546875 26.52789062 2.0234375 25.76953125 C-1.0221246 17.50097245 -0.25503184 8.67108257 0 0 Z " fill="#E2E0E1" transform="translate(82,154)"/>
<path d="M0 0 C3.96 0 7.92 0 12 0 C12.37125 1.815 12.7425 3.63 13.125 5.5 C14.61081775 11.54327798 17.01099789 15.34218316 21 20 C21.33 20.66 21.66 21.32 22 22 C12.82332219 19.70583055 7.53059416 13.94679146 2.34765625 6.3671875 C1 4 1 4 0 0 Z " fill="#F2F2F2" transform="translate(98,186)"/>
<path d="M0 0 C0.66 0.33 1.32 0.66 2 1 C1.34 3.31 0.68 5.62 0 8 C3.96 8 7.92 8 12 8 C12 8.33 12 8.66 12 9 C8.37 9 4.74 9 1 9 C1 10.32 1 11.64 1 13 C7.27 13 13.54 13 20 13 C20.33 13.66 20.66 14.32 21 15 C15.39 15 9.78 15 4 15 C4.33 29.19 4.66 43.38 5 58 C3.02 58.495 3.02 58.495 1 59 C0.4375 57.0625 0.4375 57.0625 0 55 C0.495 54.505 0.495 54.505 1 54 C1.23173505 51.11921159 1.40382799 48.25697362 1.53515625 45.37109375 C1.57813339 44.50686295 1.62111053 43.64263214 1.66539001 42.75221252 C1.80218412 39.98083748 1.93240825 37.20919698 2.0625 34.4375 C2.15386563 32.56312997 2.24565687 30.68878064 2.33789062 28.81445312 C2.5635404 24.20986138 2.78329684 19.60502111 3 15 C1.35 15 -0.3 15 -2 15 C-3.23922223 11.28233332 -2.57018942 9.56110463 -1.5625 5.8125 C-1.13130859 4.18248047 -1.13130859 4.18248047 -0.69140625 2.51953125 C-0.46324219 1.68808594 -0.23507813 0.85664063 0 0 Z " fill="#302D2E" transform="translate(242,168)"/>
<path d="M0 0 C0.33 0 0.66 0 1 0 C1.90511961 20.08862697 -1.4454034 39.07915118 -15.375 54.5 C-19.73363004 59.12623876 -24.45906709 62.88065999 -30 66 C-30.99 65.34 -31.98 64.68 -33 64 C-32.39671875 63.61328125 -31.7934375 63.2265625 -31.171875 62.828125 C-27.04710131 60.14036924 -23.42499639 57.56199625 -20 54 C-19.34 54 -18.68 54 -18 54 C-17.59201172 53.13568359 -17.59201172 53.13568359 -17.17578125 52.25390625 C-15.9974321 49.99507747 -14.65921211 48.01498279 -13.1875 45.9375 C-3.6173675 31.67566839 -1.4716763 16.70785443 0 0 Z " fill="#302D2E" transform="translate(217,53)"/>
<path d="M0 0 C4.67686427 1.09998617 7.481687 3.83502572 10.375 7.55859375 C15.26446103 15.91340095 16.99006472 23.97201694 14.67578125 33.41015625 C12.634598 39.66289481 9.64996696 44.58538218 5.375 49.55859375 C4.88 48.07359375 4.88 48.07359375 4.375 46.55859375 C5.58399037 44.91302353 6.79614627 43.26964674 8.02734375 41.640625 C11.9799142 35.53419007 13.451872 27.71801748 12.375 20.55859375 C10.76304297 14.56542017 8.84336739 9.02696114 4.375 4.55859375 C1.73041621 3.23630186 -0.30261301 3.46182181 -3.25 3.49609375 C-4.75433594 3.50962891 -4.75433594 3.50962891 -6.2890625 3.5234375 C-7.44535156 3.54083984 -7.44535156 3.54083984 -8.625 3.55859375 C-8.625 4.21859375 -8.625 4.87859375 -8.625 5.55859375 C-9.285 5.22859375 -9.945 4.89859375 -10.625 4.55859375 C-7.64702321 0.4153217 -4.87429287 -0.26455866 0 0 Z " fill="#474546" transform="translate(207.625,-0.55859375)"/>
<path d="M0 0 C3 1 3 1 4 3 C33.205 3.495 33.205 3.495 63 4 C63 4.33 63 4.66 63 5 C51.33130874 6.10860301 39.68561479 6.2187008 27.97314453 6.24023438 C24.71492507 6.25010627 21.45729533 6.28129891 18.19921875 6.3125 C16.12760787 6.31901639 14.05599255 6.32427218 11.984375 6.328125 C11.01054871 6.3404718 10.03672241 6.3528186 9.03338623 6.36553955 C8.13774963 6.36253845 7.24211304 6.35953735 6.31933594 6.35644531 C5.13691315 6.36191376 5.13691315 6.36191376 3.93060303 6.36749268 C3.29350403 6.24622009 2.65640503 6.12494751 2 6 C0 3 0 3 0 0 Z " fill="#222021" transform="translate(15,181)"/>
<path d="M0 0 C0.495 0.99 0.495 0.99 1 2 C-11.5295436 21.37558289 -29.72793024 28.95000956 -50 39 C-50.33 38.34 -50.66 37.68 -51 37 C-48.66962039 35.66127129 -46.33657517 34.32785595 -44 33 C-43.28247559 32.59209229 -42.56495117 32.18418457 -41.82568359 31.76391602 C-37.49934917 29.33005816 -33.13475746 27.0550035 -28.65771484 24.91210938 C-17.98255437 19.79377637 -9.7013263 13.93716922 -3 4 C-2.00599749 2.66218956 -1.00750366 1.32767246 0 0 Z " fill="#3A3839" transform="translate(190,126)"/>
<path d="M0 0 C0 3.92720807 -1.39220651 5.35547265 -3.625 8.5625 C-12.4876203 21.5505524 -18.96030562 33.01963932 -19.625 49 C-19.66367188 49.77472656 -19.70234375 50.54945312 -19.7421875 51.34765625 C-19.83521357 53.23143415 -19.91863175 55.11568256 -20 57 C-20.33 57 -20.66 57 -21 57 C-23.31641934 32.21504144 -14.46685077 19.38505682 0 0 Z " fill="#393738" transform="translate(127,77)"/>
<path d="M0 0 C0.33 0 0.66 0 1 0 C1.01417969 0.77601563 1.02835937 1.55203125 1.04296875 2.3515625 C1.60098363 14.98984555 5.25682549 25.94185579 13 36 C12.67 36.66 12.34 37.32 12 38 C4.87445339 31.02606076 -1.50390477 21.2983551 -3.0625 11.25 C-3 8 -3 8 -1 6 C-0.60235737 4.01178687 -0.26224651 2.01055661 0 0 Z " fill="#E7E6E6" transform="translate(90,162)"/>
<path d="M0 0 C0.66 0 1.32 0 2 0 C2.33 0.66 2.66 1.32 3 2 C3.66 1.34 4.32 0.68 5 0 C5.47617251 6.69286912 5.39973696 10.77531236 1 16 C-3.875 15.125 -3.875 15.125 -5 14 C-5.47530864 7.58333333 -5.47530864 7.58333333 -3.625 5.3125 C-3.08875 4.879375 -2.5525 4.44625 -2 4 C-0.82425289 1.90010348 -0.82425289 1.90010348 0 0 Z " fill="#454343" transform="translate(266,167)"/>
<path d="M0 0 C0.99 0.33 1.98 0.66 3 1 C1.68 2.32 0.36 3.64 -1 5 C-0.34 5 0.32 5 1 5 C1 5.66 1 6.32 1 7 C-0.74895933 8.11188136 -2.5526122 9.13806454 -4.375 10.125 C-11.61518075 14.22062888 -18.20743074 19.00385802 -24 25 C-24.66 24.67 -25.32 24.34 -26 24 C-21.0341698 17.98124305 -15.74552564 12.92313327 -9.62109375 8.08984375 C-7.32611449 6.26001677 -5.16358035 4.35561373 -3 2.375 C-2.01 1.59125 -1.02 0.8075 0 0 Z " fill="#2E2A2B" transform="translate(150,130)"/>
<path d="M0 0 C0 3.78761772 -1.41432591 4.85266511 -3.96362305 7.48168945 C-4.53250244 8.04460693 -5.10138184 8.60752441 -5.6875 9.1875 C-6.26604736 9.76395264 -6.84459473 10.34040527 -7.44067383 10.93432617 C-20.98518477 24 -20.98518477 24 -28 24 C-28 23.01 -28 22.02 -28 21 C-28.66 20.67 -29.32 20.34 -30 20 C-29.24976563 19.731875 -28.49953125 19.46375 -27.7265625 19.1875 C-19.96581236 16.21612967 -14.1948146 12.49038753 -8 7 C-7.20851562 6.31679687 -6.41703125 5.63359375 -5.6015625 4.9296875 C-3.72145225 3.30025861 -1.85489214 1.65800415 0 0 Z " fill="#322E2F" transform="translate(174,186)"/>
<path d="M0 0 C0.33 0 0.66 0 1 0 C1.66 18.15 2.32 36.3 3 55 C1.02 55.495 1.02 55.495 -1 56 C-0.67 37.52 -0.34 19.04 0 0 Z " fill="#979797" transform="translate(232,184)"/>
<path d="M0 0 C0.66 0.33 1.32 0.66 2 1 C-3.47183074 4.75517796 -8.81220247 7.18607258 -15.0234375 9.484375 C-20.00951512 11.35382865 -24.91012012 13.42277118 -29.8125 15.5 C-30.69574951 15.86770508 -31.57899902 16.23541016 -32.48901367 16.61425781 C-38.0001207 18.96170609 -43.02764381 21.65776725 -48 25 C-48.33 24.34 -48.66 23.68 -49 23 C-37.92066385 15.56377245 -26.79003905 10.74905141 -14.16821289 6.5859375 C-10.20938412 5.25406748 -6.60197691 3.88207031 -3.015625 1.72265625 C-1.52289063 0.86994141 -1.52289063 0.86994141 0 0 Z " fill="#373636" transform="translate(180,130)"/>
<path d="M0 0 C-1.00417969 0.47308594 -2.00835937 0.94617188 -3.04296875 1.43359375 C-15.36319704 7.34615261 -26.66871883 13.80069267 -36 24 C-37.32 23.34 -38.64 22.68 -40 22 C-39.505 20.515 -39.505 20.515 -39 19 C-38.34 19 -37.68 19 -37 19 C-36.67 19.66 -36.34 20.32 -36 21 C-35.46826172 20.27296875 -35.46826172 20.27296875 -34.92578125 19.53125 C-29.04248576 12.12371089 -10.12679947 -3.37559982 0 0 Z " fill="#1C1A1B" transform="translate(174,79)"/>
<path d="M0 0 C0 3 0 3 -2.5625 5.890625 C-3.70024836 7.01863035 -4.84662365 8.13797914 -6 9.25 C-6.59578857 9.83628174 -7.19157715 10.42256348 -7.80541992 11.02661133 C-10.88294114 14.03317383 -14.00978737 16.9275177 -17.3125 19.6875 C-24.53161026 25.85572712 -29.76292226 33.56658565 -34 42 C-35 39 -35 39 -34.1015625 36.87109375 C-26.39540386 24.17020265 -15.57670594 14.65227351 -4.75830078 4.65063477 C-3.1390674 3.13055189 -1.56053241 1.58004657 0 0 Z " fill="#2B2B2B" transform="translate(141,52)"/>
<path d="M0 0 C0 3 0 3 -1.40625 4.76171875 C-6.23629986 9.20428326 -11.23266127 12.44176061 -17.0625 15.375 C-17.7225 15.70846436 -18.3825 16.04192871 -19.0625 16.38549805 C-23.62446505 18.58348443 -28.05595408 19.90867214 -33 21 C-32 18 -32 18 -30.11743164 16.96020508 C-29.30653076 16.64978271 -28.49562988 16.33936035 -27.66015625 16.01953125 C-26.31872559 15.48585938 -26.31872559 15.48585938 -24.95019531 14.94140625 C-23.52078613 14.38259766 -23.52078613 14.38259766 -22.0625 13.8125 C-13.39050587 10.28411707 -6.66737128 6.66737128 0 0 Z " fill="#2E2C2D" transform="translate(211,48)"/>
<path d="M0 0 C1.09282722 3.27848165 0.89848493 4.03719515 0.0625 7.25 C-3.09200172 22.07183686 -0.99111815 35.82493562 6.79296875 48.72265625 C8 51 8 51 8 54 C5.48158445 51.72317664 4.01696531 49.46656856 2.5 46.4375 C2.0978125 45.65246094 1.695625 44.86742187 1.28125 44.05859375 C-2.19942833 35.74953542 -3.48188393 28.37700207 -3.375 19.375 C-3.38660156 18.39015625 -3.39820312 17.4053125 -3.41015625 16.390625 C-3.38551554 10.23044792 -2.52542169 5.62541022 0 0 Z " fill="#363435" transform="translate(88,141)"/>
<path d="M0 0 C-1.11117187 0.53367187 -2.22234375 1.06734375 -3.3671875 1.6171875 C-12.87861121 6.32905312 -19.97415455 10.92465067 -27 19 C-27.99115096 20.00877142 -28.98734331 21.01281895 -30 22 C-30.66 21.34 -31.32 20.68 -32 20 C-30.86521232 16.59563695 -29.91249785 16.17275584 -26.9921875 14.36328125 C-24.41964297 12.60285372 -22.12001041 10.58674402 -19.75 8.5625 C-6.93083056 -2.01812416 -6.93083056 -2.01812416 0 0 Z " fill="#2E2D2E" transform="translate(162,93)"/>
<path d="M0 0 C1 3 1 3 -0.3359375 5.78515625 C-4.95497695 13.20924456 -9.86212825 19.71861686 -16 26 C-16.98226562 27.02287109 -16.98226562 27.02287109 -17.984375 28.06640625 C-24.25733055 34.48680306 -24.25733055 34.48680306 -27 36 C-29.11328125 35.5625 -29.11328125 35.5625 -31 35 C-30.45472656 34.5875 -29.90945312 34.175 -29.34765625 33.75 C-16.71982364 24.07945468 -7.33136759 14.27501862 0 0 Z " fill="#262526" transform="translate(202,85)"/>
<path d="M0 0 C0.33 0 0.66 0 1 0 C1.68657603 15.23817351 0.01990253 29.21090575 -7 43 C-8.13671875 41.328125 -8.13671875 41.328125 -9 39 C-8.20703125 36.546875 -8.20703125 36.546875 -6.8125 33.75 C-2.05625293 23.13592274 -0.70908008 11.54088962 0 0 Z " fill="#555454" transform="translate(217,53)"/>
<path d="M0 0 C0.66 0.33 1.32 0.66 2 1 C1.67 1.66 1.34 2.32 1 3 C10.24 3 19.48 3 29 3 C28.67 4.32 28.34 5.64 28 7 C28 6.34 28 5.68 28 5 C17.77 5 7.54 5 -3 5 C-1 1 -1 1 0 0 Z " fill="#1A1718" transform="translate(138,164)"/>
<path d="M0 0 C0.66 0.33 1.32 0.66 2 1 C1.01 2.485 1.01 2.485 0 4 C0.33 4.66 0.66 5.32 1 6 C0.28714844 6.43570313 -0.42570312 6.87140625 -1.16015625 7.3203125 C-6.85736728 10.86285825 -12.04046121 14.4813091 -17 19 C-13.40714907 11.13409821 -6.53396433 5.4308275 0 0 Z " fill="#E7E6E7" transform="translate(155,80)"/>
<path d="M0 0 C0.66 0 1.32 0 2 0 C1.38604427 3.51458329 0.44134986 6.62621683 -0.875 9.9375 C-3.32133397 16.47296155 -4.68216526 23.16123639 -6 30 C-7.8126774 27.33429794 -8.00016626 26.00244141 -7.77734375 22.73046875 C-6.96214678 18.81834259 -5.86722816 15.08213733 -4.5625 11.3125 C-4.34529297 10.66216797 -4.12808594 10.01183594 -3.90429688 9.34179688 C-2.80525804 6.10408788 -1.63608372 3.00582824 0 0 Z " fill="#353334" transform="translate(117,107)"/>
<path d="M0 0 C-0.11512153 1.72985242 -0.24255677 3.45888751 -0.375 5.1875 C-0.44460937 6.15042969 -0.51421875 7.11335938 -0.5859375 8.10546875 C-1.00215853 11.01508938 -1.79874096 13.32890774 -3 16 C-3.66 15.67 -4.32 15.34 -5 15 C-4.68817931 13.58318366 -4.37551263 12.16655349 -4.0625 10.75 C-3.80146484 9.56664063 -3.80146484 9.56664063 -3.53515625 8.359375 C-3.052444 6.23121297 -2.53836822 4.11467158 -2 2 C-3.03640625 2.45632812 -4.0728125 2.91265625 -5.140625 3.3828125 C-6.51007038 3.9643578 -7.87988153 4.54504228 -9.25 5.125 C-9.93191406 5.42792969 -10.61382812 5.73085937 -11.31640625 6.04296875 C-13.328125 6.8828125 -13.328125 6.8828125 -17 8 C-19.22949219 7.06982422 -19.22949219 7.06982422 -21 6 C-17.87647773 4.99534271 -14.75095147 3.99707073 -11.625 3 C-10.73554688 2.71382813 -9.84609375 2.42765625 -8.9296875 2.1328125 C-7.65351563 1.72675781 -7.65351563 1.72675781 -6.3515625 1.3125 C-5.56604004 1.06113281 -4.78051758 0.80976562 -3.97119141 0.55078125 C-2 0 -2 0 0 0 Z " fill="#474647" transform="translate(181,85)"/>
<path d="M0 0 C1 1 1 1 1.09765625 3.50390625 C1.08605469 4.51324219 1.07445312 5.52257812 1.0625 6.5625 C1.05347656 7.57441406 1.04445313 8.58632812 1.03515625 9.62890625 C1.02355469 10.41136719 1.01195312 11.19382813 1 12 C0.67 12 0.34 12 0 12 C-0.33 9.03 -0.66 6.06 -1 3 C-1.66 3 -2.32 3 -3 3 C-3.99 6.63 -4.98 10.26 -6 14 C-6.33 14 -6.66 14 -7 14 C-7.02698189 12.37509046 -7.04638757 10.75005367 -7.0625 9.125 C-7.07410156 8.22007812 -7.08570313 7.31515625 -7.09765625 6.3828125 C-7 4 -7 4 -6 2 C-8.97 2 -11.94 2 -15 2 C-15 1.67 -15 1.34 -15 1 C-4.96815287 -0.24840764 -4.96815287 -0.24840764 0 0 Z " fill="#211F20" transform="translate(269,164)"/>
<path d="M0 0 C0 0.66 0 1.32 0 2 C-0.66 2 -1.32 2 -2 2 C-2 2.66 -2 3.32 -2 4 C-1.34 4.33 -0.68 4.66 0 5 C-0.556875 5.35191406 -1.11375 5.70382813 -1.6875 6.06640625 C-7.21154792 9.6402413 -12.16231881 13.5445879 -17 18 C-17 13.74508832 -14.52840258 11.92686684 -11.75 9 C-11.25886719 8.46632813 -10.76773438 7.93265625 -10.26171875 7.3828125 C-3.37476679 0 -3.37476679 0 0 0 Z " fill="#E9E9E9" transform="translate(152,91)"/>
<path d="M0 0 C2.61058793 2.40977347 4.63205927 4.89669183 6.625 7.8125 C11.9948739 15.08081416 19.50423978 19.32540882 28 22 C25.25509273 23.09142742 24.1091624 23.03727116 21.265625 22.06640625 C12.15535645 17.52307284 5.01607119 11.98712755 0 3 C0 2.01 0 1.02 0 0 Z " fill="#302F2F" transform="translate(88,189)"/>
<path d="M0 0 C0.66 0.33 1.32 0.66 2 1 C2.99 0.67 3.98 0.34 5 0 C5 0.99 5 1.98 5 3 C4.34 3 3.68 3 3 3 C0.60438853 12.07017674 -0.59314111 20.64224564 -1 30 C-1.33 30 -1.66 30 -2 30 C-2.39755352 8.99082569 -2.39755352 8.99082569 0 0 Z " fill="#F7F6F7" transform="translate(85,138)"/>
<path d="M0 0 C7.09727428 -0.10808032 13.96094956 0.06145994 21 1 C20.67 1.66 20.34 2.32 20 3 C18.90300781 2.97679687 17.80601562 2.95359375 16.67578125 2.9296875 C15.221361 2.91092079 13.76693336 2.89272156 12.3125 2.875 C11.59126953 2.85824219 10.87003906 2.84148437 10.12695312 2.82421875 C5.95123219 2.78608431 2.7505862 3.1210081 -1 5 C-1 4.34 -1 3.68 -1 3 C-5.29 3 -9.58 3 -14 3 C-14 2.67 -14 2.34 -14 2 C-9.38 1.67 -4.76 1.34 0 1 C0 0.67 0 0.34 0 0 Z " fill="#535152" transform="translate(242,165)"/>
<path d="M0 0 C0.04898438 0.845625 0.09796875 1.69125 0.1484375 2.5625 C0.56924014 8.94709185 1.19350763 14.85792595 3 21 C-0.52724042 17.94305831 -1.98604545 15.56279549 -3 11 C-3.15005196 7.6588431 -3.11887393 4.3416782 -3 1 C-1 0 -1 0 0 0 Z " fill="#DCDBDB" transform="translate(123,182)"/>
<path d="M0 0 C0.66 0.33 1.32 0.66 2 1 C1.43152344 1.51046875 0.86304688 2.0209375 0.27734375 2.546875 C-5.91279551 8.37531998 -10.05060872 14.49488667 -14 22 C-15.10392951 18.21624161 -14.89992886 16.54077652 -13 13 C-10.875 10.6875 -10.875 10.6875 -8 8 C-6.55849399 6.56651721 -5.12118871 5.12880121 -3.6875 3.6875 C-2.45833333 2.45833333 -1.22916667 1.22916667 0 0 Z " fill="#272526" transform="translate(130,154)"/>
<path d="M0 0 C0.66 0.33 1.32 0.66 2 1 C1.64154938 3.8487391 1.12645301 4.88047592 -0.99609375 6.88671875 C-1.80175781 7.48097656 -2.60742188 8.07523438 -3.4375 8.6875 C-4.24058594 9.28949219 -5.04367188 9.89148438 -5.87109375 10.51171875 C-8 12 -8 12 -10 13 C-9.55212676 8.35026146 -7.97814403 6.62972532 -4.4375 3.6875 C-3.61121094 2.99011719 -2.78492188 2.29273438 -1.93359375 1.57421875 C-1.29550781 1.05472656 -0.65742188 0.53523437 0 0 Z " fill="#E4E3E3" transform="translate(136,145)"/>
<path d="M0 0 C0.99 0 1.98 0 3 0 C3.33 6.6 3.66 13.2 4 20 C3.01 20.33 2.02 20.66 1 21 C0.07811539 18.23434618 -0.11785222 16.61716298 -0.09765625 13.76953125 C-0.09282227 12.56586914 -0.09282227 12.56586914 -0.08789062 11.33789062 C-0.07951172 10.50451172 -0.07113281 9.67113281 -0.0625 8.8125 C-0.05798828 7.96751953 -0.05347656 7.12253906 -0.04882812 6.25195312 C-0.03705403 4.16793845 -0.0191189 2.08396023 0 0 Z " fill="#CAC9C9" transform="translate(82,154)"/>
<path d="M0 0 C0.99 0.99 1.98 1.98 3 3 C2.25234375 3.53109375 1.5046875 4.0621875 0.734375 4.609375 C-0.74289063 5.66898438 -0.74289063 5.66898438 -2.25 6.75 C-3.22453125 7.44609375 -4.1990625 8.1421875 -5.203125 8.859375 C-7.69233296 10.76452299 -9.84971939 12.72684621 -12 15 C-12.66 14.67 -13.32 14.34 -14 14 C-9.61932717 8.89662734 -5.32423478 4.12628195 0 0 Z " fill="#312F30" transform="translate(138,140)"/>
<path d="M0 0 C0.99 0.33 1.98 0.66 3 1 C1.08435828 2.60540415 -0.83246912 4.209355 -2.75 5.8125 C-3.55824219 6.49022461 -3.55824219 6.49022461 -4.3828125 7.18164062 C-7.20009316 9.53510069 -10.035535 11.83421368 -13 14 C-13.66 13.67 -14.32 13.34 -15 13 C-13.71034824 11.62437146 -12.37310707 10.29233607 -11 9 C-10.34 9 -9.68 9 -9 9 C-8.773125 8.4225 -8.54625 7.845 -8.3125 7.25 C-6.33370463 3.85777937 -3.49013058 1.74506529 0 0 Z " fill="#D6D5D5" transform="translate(182,109)"/>
<path d="M0 0 C2 2 2 2 2.04345703 4.52197266 C1.94919434 5.5588623 1.85493164 6.59575195 1.7578125 7.6640625 C1.66113281 8.78554687 1.56445312 9.90703125 1.46484375 11.0625 C1.29662109 12.8259375 1.29662109 12.8259375 1.125 14.625 C1.02058594 15.80835937 0.91617188 16.99171875 0.80859375 18.2109375 C0.5486138 21.14162058 0.27867724 24.07104533 0 27 C-0.33 27 -0.66 27 -1 27 C-1.22821192 23.81360234 -1.42892029 20.62602344 -1.625 17.4375 C-1.68945312 16.54224609 -1.75390625 15.64699219 -1.8203125 14.72460938 C-2.13783653 9.30685566 -1.83935647 5.11790408 0 0 Z " fill="#4B494A" transform="translate(107,107)"/>
<path d="M0 0 C0.33 0.66 0.66 1.32 1 2 C-2.08297412 3.62568217 -5.16644189 5.25042584 -8.25 6.875 C-9.55904297 7.56529297 -9.55904297 7.56529297 -10.89453125 8.26953125 C-12.16103516 8.93662109 -12.16103516 8.93662109 -13.453125 9.6171875 C-14.61569824 10.22989502 -14.61569824 10.22989502 -15.80175781 10.85498047 C-17.85731347 11.92567749 -19.923735 12.97013947 -22 14 C-22.66 13.34 -23.32 12.68 -24 12 C-16.08 8.04 -8.16 4.08 0 0 Z " fill="#3F3E3E" transform="translate(166,142)"/>
<path d="M0 0 C-1.07378906 0.53109375 -2.14757812 1.0621875 -3.25390625 1.609375 C-4.69015842 2.32280745 -6.12635328 3.03635529 -7.5625 3.75 C-8.26697266 4.09804687 -8.97144531 4.44609375 -9.69726562 4.8046875 C-14.22551026 7.05837608 -18.6309758 9.45092412 -23 12 C-23.66 11.34 -24.32 10.68 -25 10 C-13.0859375 4.04296875 -13.0859375 4.04296875 -10.98339844 3.00146484 C-9.19114893 2.09651562 -7.42563839 1.1390786 -5.6640625 0.17578125 C-3 -1 -3 -1 0 0 Z " fill="#4D4C4D" transform="translate(174,79)"/>
<path d="M0 0 C0.66 0 1.32 0 2 0 C2.05416188 1.60379341 2.09286638 3.20811406 2.125 4.8125 C2.14820313 5.70582031 2.17140625 6.59914062 2.1953125 7.51953125 C2 10 2 10 0 13 C-0.66 13 -1.32 13 -2 13 C-2.05447047 11.58376784 -2.09300508 10.16691809 -2.125 8.75 C-2.14820313 7.96109375 -2.17140625 7.1721875 -2.1953125 6.359375 C-1.9828378 3.79268059 -1.28654105 2.2083933 0 0 Z " fill="#EFEFEF" transform="translate(266,167)"/>
<path d="M0 0 C0.66 0.66 1.32 1.32 2 2 C1.44570312 2.45890625 0.89140625 2.9178125 0.3203125 3.390625 C-0.76636719 4.31101562 -0.76636719 4.31101562 -1.875 5.25 C-2.59429687 5.85328125 -3.31359375 6.4565625 -4.0546875 7.078125 C-6.07711546 8.86125211 -6.07711546 8.86125211 -7.0078125 11.08984375 C-8.27995956 13.53897727 -9.5340776 14.13846709 -12 15.3125 C-12.70125 15.65925781 -13.4025 16.00601563 -14.125 16.36328125 C-15.053125 16.67845703 -15.053125 16.67845703 -16 17 C-16.66 16.67 -17.32 16.34 -18 16 C-17.28714844 15.43152344 -16.57429687 14.86304687 -15.83984375 14.27734375 C-10.25557965 9.77535964 -4.92111798 5.22343922 0 0 Z " fill="#D7D6D6" transform="translate(189,107)"/>
<path d="M0 0 C0.33 1.32 0.66 2.64 1 4 C-0.4334152 5.15093925 -1.87188909 6.29558035 -3.3125 7.4375 C-4.11300781 8.07558594 -4.91351563 8.71367188 -5.73828125 9.37109375 C-8 11 -8 11 -11 12 C-11.66 11.34 -12.32 10.68 -13 10 C-12.39671875 9.61328125 -11.7934375 9.2265625 -11.171875 8.828125 C-5.17198187 4.92383803 -5.17198187 4.92383803 0 0 Z " fill="#3A3738" transform="translate(197,107)"/>
<path d="M0 0 C2 1 2 1 3 3 C6.02934491 3.65772428 6.02934491 3.65772428 9 4 C8.67 4.66 8.34 5.32 8 6 C3.05 6 -1.9 6 -7 6 C-7.33 5.34 -7.66 4.68 -8 4 C-5.36 4 -2.72 4 0 4 C0 2.68 0 1.36 0 0 Z " fill="#383536" transform="translate(125,208)"/>
<path d="M0 0 C0.99 0.33 1.98 0.66 3 1 C-0.66666667 4.66666667 -4.33333333 8.33333333 -8 12 C-8.66 11.34 -9.32 10.68 -10 10 C-8.65790834 5.97372501 -6.51298199 5.24830847 -3 3 C-1.20605554 1.37648891 -1.20605554 1.37648891 0 0 Z " fill="#363435" transform="translate(140,103)"/>
<path d="M0 0 C0.33 0.66 0.66 1.32 1 2 C-2.40554079 7.26630019 -5.87668862 12.2703193 -10 17 C-11.32 16.67 -12.64 16.34 -14 16 C-12.4840625 14.824375 -12.4840625 14.824375 -10.9375 13.625 C-6.3681994 9.74575704 -3.24650647 4.99310722 0 0 Z " fill="#3D3C3C" transform="translate(190,126)"/>
<path d="M0 0 C-5.61 2.97 -11.22 5.94 -17 9 C-17 6 -17 6 -15 4 C-13.35008418 3.29289322 -11.6792238 2.63437344 -10 2 C-8.80375 1.443125 -7.6075 0.88625 -6.375 0.3125 C-3 -1 -3 -1 0 0 Z " fill="#2C292A" transform="translate(186,119)"/>
<path d="M0 0 C0.99 0.33 1.98 0.66 3 1 C1.31326082 5.49797113 -0.81673892 9.72886302 -3 14 C-3.33 14 -3.66 14 -4 14 C-4 11.36 -4 8.72 -4 6 C-3.01 5.67 -2.02 5.34 -1 5 C-0.67 3.35 -0.34 1.7 0 0 Z " fill="#252223" transform="translate(129,113)"/>
<path d="M0 0 C0.33 0 0.66 0 1 0 C1.02505615 0.55461914 1.0501123 1.10923828 1.07592773 1.68066406 C1.19227927 4.20398843 1.31482754 6.72697536 1.4375 9.25 C1.47681641 10.12269531 1.51613281 10.99539062 1.55664062 11.89453125 C1.59853516 12.73886719 1.64042969 13.58320313 1.68359375 14.453125 C1.72025146 15.22817383 1.75690918 16.00322266 1.79467773 16.80175781 C1.99603015 18.9574976 2.41729297 20.91801475 3 23 C1.68 23.33 0.36 23.66 -1 24 C-0.67 16.08 -0.34 8.16 0 0 Z " fill="#353434" transform="translate(232,216)"/>
<path d="M0 0 C0 3 0 3 -2.40625 5.69921875 C-3.4299968 6.70302243 -4.4616054 7.69885649 -5.5 8.6875 C-6.02464844 9.19861328 -6.54929688 9.70972656 -7.08984375 10.23632812 C-8.38660904 11.49772708 -9.69246117 12.74977212 -11 14 C-11.33 13.01 -11.66 12.02 -12 11 C-10.56564079 9.5385774 -9.12739414 8.08096951 -7.6875 6.625 C-6.88699219 5.81289062 -6.08648437 5.00078125 -5.26171875 4.1640625 C-3 2 -3 2 0 0 Z " fill="#282727" transform="translate(174,186)"/>
<path d="M0 0 C0.66 0.99 1.32 1.98 2 3 C1.34 5.31 0.68 7.62 0 10 C-5.61 10 -11.22 10 -17 10 C-17 9.67 -17 9.34 -17 9 C-12.38 8.67 -7.76 8.34 -3 8 C-2.01 5.36 -1.02 2.72 0 0 Z " fill="#555454" transform="translate(114,174)"/>
<path d="M0 0 C13.365 0.495 13.365 0.495 27 1 C27 1.33 27 1.66 27 2 C25.88757935 2.029729 25.88757935 2.029729 24.75268555 2.06005859 C21.39726166 2.15522928 18.04246714 2.26494094 14.6875 2.375 C13.52025391 2.4059375 12.35300781 2.436875 11.15039062 2.46875 C9.47299805 2.52675781 9.47299805 2.52675781 7.76171875 2.5859375 C6.2142395 2.63306885 6.2142395 2.63306885 4.63549805 2.68115234 C1.77156764 2.82674629 1.77156764 2.82674629 -1 5 C-0.67 3.35 -0.34 1.7 0 0 Z " fill="#363435" transform="translate(53,169)"/>
<path d="M0 0 C0.66 0.66 1.32 1.32 2 2 C1.48703094 4.78890076 0.88187968 7.40305381 0.125 10.125 C-0.07480469 10.87910156 -0.27460937 11.63320312 -0.48046875 12.41015625 C-0.97651886 14.27624952 -1.48692568 16.13851549 -2 18 C-2.66 17.34 -3.32 16.68 -4 16 C-3.69609888 10.1245784 -2.22698702 5.42222927 0 0 Z " fill="#494748" transform="translate(105,93)"/>
<path d="M0 0 C0.33 0.99 0.66 1.98 1 3 C-0.14530323 5.26989037 -1.31700432 7.31168782 -2.6875 9.4375 C-3.21633789 10.29698242 -3.21633789 10.29698242 -3.75585938 11.17382812 C-5.86054522 14.51746981 -8.09169882 17.32803932 -11 20 C-11 16.4988288 -10.45504372 15.99786208 -8.3125 13.375 C-5.01946688 9.16680091 -2.47255601 4.72630175 0 0 Z " fill="#393738" transform="translate(202,85)"/>
<path d="M0 0 C0 3 0 3 -1.19335938 4.53393555 C-1.73798828 5.062854 -2.28261719 5.59177246 -2.84375 6.13671875 C-3.72353516 7.00200195 -3.72353516 7.00200195 -4.62109375 7.88476562 C-5.24113281 8.47966797 -5.86117187 9.07457031 -6.5 9.6875 C-7.12003906 10.29400391 -7.74007812 10.90050781 -8.37890625 11.52539062 C-9.91264707 13.02373743 -11.45548198 14.51276493 -13 16 C-13.66 15.34 -14.32 14.68 -15 14 C-14.33613281 13.40832031 -13.67226562 12.81664063 -12.98828125 12.20703125 C-8.55061038 8.2358017 -4.14213205 4.28020312 0 0 Z " fill="#3A3A3A" transform="translate(141,52)"/>
<path d="M0 0 C0.66 0.66 1.32 1.32 2 2 C-1.96 7.94 -1.96 7.94 -6 14 C-6.66 13.34 -7.32 12.68 -8 12 C-5.36 8.04 -2.72 4.08 0 0 Z " fill="#353434" transform="translate(137,73)"/>
<path d="M0 0 C2.27678571 8.03571429 2.27678571 8.03571429 1 12 C0.16151196 10.54462432 -0.67063934 9.08559627 -1.5 7.625 C-2.19609375 6.40683594 -2.19609375 6.40683594 -2.90625 5.1640625 C-4 3 -4 3 -4 1 C-1 0 -1 0 0 0 Z " fill="#424041" transform="translate(111,150)"/>
<path d="M0 0 C0.33 0 0.66 0 1 0 C1.05383848 2.45862401 1.09359038 4.9160755 1.125 7.375 C1.14175781 8.07367188 1.15851563 8.77234375 1.17578125 9.4921875 C1.19344267 11.32897486 1.10303261 13.16601963 1 15 C0.34 15.66 -0.32 16.32 -1 17 C-1 16.34 -1 15.68 -1 15 C-1.66 15 -2.32 15 -3 15 C-3 13.35 -3 11.7 -3 10 C-2.01 10.33 -1.02 10.66 0 11 C0 7.37 0 3.74 0 0 Z " fill="#181415" transform="translate(105,120)"/>
<path d="M0 0 C0 0.99 0 1.98 0 3 C-3.63 4.32 -7.26 5.64 -11 7 C-11.66 6.34 -12.32 5.68 -13 5 C-11.21046815 4.16209211 -9.41830305 3.32980604 -7.625 2.5 C-6.62726563 2.0359375 -5.62953125 1.571875 -4.6015625 1.09375 C-2 0 -2 0 0 0 Z " fill="#3F3D3E" transform="translate(178,67)"/>
<path d="M0 0 C0 0.99 0 1.98 0 3 C0.66 3.66 1.32 4.32 2 5 C0.68 6.65 -0.64 8.3 -2 10 C-2.66 9.67 -3.32 9.34 -4 9 C-3.34 8.01 -2.68 7.02 -2 6 C-2.83333333 3.83333333 -2.83333333 3.83333333 -5 3 C-2.25 0 -2.25 0 0 0 Z " fill="#4B494A" transform="translate(166,117)"/>
<path d="M0 0 C0.33 1.32 0.66 2.64 1 4 C-3.455 7.96 -3.455 7.96 -8 12 C-8 8.03869629 -6.65122875 7.17085599 -4 4.3125 C-3.2575 3.50425781 -2.515 2.69601563 -1.75 1.86328125 C-1.1725 1.24839844 -0.595 0.63351563 0 0 Z " fill="#DBD9DA" transform="translate(143,97)"/>
<path d="M0 0 C3.81936528 1.55603771 6.26044438 3.95604931 9 7 C9 7.66 9 8.32 9 9 C5.18063472 7.44396229 2.73955562 5.04395069 0 2 C0 1.34 0 0.68 0 0 Z " fill="#E2E0E1" transform="translate(96,197)"/>
<path d="M0 0 C0.99 0 1.98 0 3 0 C3.66 3.96 4.32 7.92 5 12 C4.01 12 3.02 12 2 12 C0.40861915 7.82262526 -0.21278058 4.46839215 0 0 Z " fill="#424040" transform="translate(110,186)"/>
<path d="M0 0 C3 1 3 1 4 3 C6.35599235 3.46751788 6.35599235 3.46751788 9.0625 3.625 C10.44115234 3.73714844 10.44115234 3.73714844 11.84765625 3.8515625 C12.55792969 3.90054688 13.26820312 3.94953125 14 4 C14 4.33 14 4.66 14 5 C8.06 5.495 8.06 5.495 2 6 C0 3 0 3 0 0 Z " fill="#2E2C2D" transform="translate(15,181)"/>
<path d="M0 0 C0.66 0.66 1.32 1.32 2 2 C1.6875 4.6875 1.6875 4.6875 1 8 C0.66140041 10.33257494 0.3267961 12.66574212 0 15 C-1.90001676 12.20585771 -1.99542768 10.94878997 -1.6875 7.5 C-1.1906848 4.97075899 -0.69457888 2.48063884 0 0 Z " fill="#4C4B4B" transform="translate(111,122)"/>
<path d="M0 0 C0 3 0 3 -1.96875 5.04296875 C-2.8040625 5.75066406 -3.639375 6.45835938 -4.5 7.1875 C-5.3353125 7.90292969 -6.170625 8.61835937 -7.03125 9.35546875 C-7.6809375 9.89816406 -8.330625 10.44085938 -9 11 C-9.99 10.67 -10.98 10.34 -12 10 C-10.82630859 9.04287109 -10.82630859 9.04287109 -9.62890625 8.06640625 C-8.61699219 7.24011719 -7.60507813 6.41382813 -6.5625 5.5625 C-5.55316406 4.73878906 -4.54382813 3.91507813 -3.50390625 3.06640625 C-1.70216039 1.58798996 -1.70216039 1.58798996 0 0 Z " fill="#272727" transform="translate(211,48)"/>
<path d="M0 0 C0.66 0 1.32 0 2 0 C3.60355101 3.50776784 4.22036864 6.14354879 4 10 C3.34 10 2.68 10 2 10 C0.39644899 6.49223216 -0.22036864 3.85645121 0 0 Z " fill="#EFEEEF" transform="translate(84,174)"/>
<path d="M0 0 C1.91541138 -0.10841951 3.83259773 -0.18578079 5.75 -0.25 C6.81734375 -0.29640625 7.8846875 -0.3428125 8.984375 -0.390625 C12.63802112 0.08264522 13.72228105 1.19155042 16 4 C13 4 13 4 10.8125 3.0625 C7.18868526 1.69350332 3.85129358 1.39165697 0 1 C0 0.67 0 0.34 0 0 Z " fill="#211F20" transform="translate(0,177)"/>
<path d="M0 0 C1.09658936 3.28976808 0.79953138 4.71303767 0 8 C-0.33 8 -0.66 8 -1 8 C-1.33 6.35 -1.66 4.7 -2 3 C-6.29 2.67 -10.58 2.34 -15 2 C-15 1.67 -15 1.34 -15 1 C-10.05 0.67 -5.1 0.34 0 0 Z " fill="#120F10" transform="translate(112,183)"/>
<path d="M0 0 C1.99954746 -0.04254356 4.00041636 -0.04080783 6 0 C7 1 7 1 7.09765625 3.50390625 C7.08605469 4.51324219 7.07445312 5.52257812 7.0625 6.5625 C7.05347656 7.57441406 7.04445313 8.58632812 7.03515625 9.62890625 C7.02355469 10.41136719 7.01195312 11.19382813 7 12 C6.67 12 6.34 12 6 12 C5.67 9.03 5.34 6.06 5 3 C4.34 3 3.68 3 3 3 C3 2.34 3 1.68 3 1 C2.01 0.67 1.02 0.34 0 0 Z " fill="#2D292A" transform="translate(263,164)"/>
<path d="M0 0 C0.99 0.33 1.98 0.66 3 1 C1.58833114 1.98635837 0.17043816 2.96381255 -1.25 3.9375 C-2.43335938 4.75541016 -2.43335938 4.75541016 -3.640625 5.58984375 C-5.82636993 6.89622441 -7.5153801 7.54980511 -10 8 C-6.97731777 4.74480375 -3.85903564 2.21689281 0 0 Z " fill="#2E2C2D" transform="translate(175,143)"/>
<path d="M0 0 C0.86625 0.3403125 0.86625 0.3403125 1.75 0.6875 C0.1 2.3375 -1.55 3.9875 -3.25 5.6875 C-4.24 5.3575 -5.23 5.0275 -6.25 4.6875 C-6.25 4.0275 -6.25 3.3675 -6.25 2.6875 C-3.02697842 -0.42041367 -3.02697842 -0.42041367 0 0 Z " fill="#262324" transform="translate(145.25,136.3125)"/>
<path d="M0 0 C3.99996286 1.33332095 4.83782337 3.4957827 7 7 C6.34 7.66 5.68 8.32 5 9 C0 3.375 0 3.375 0 0 Z " fill="#343132" transform="translate(113,197)"/>
<path d="M0 0 C2.97 0.495 2.97 0.495 6 1 C4.625 3 4.625 3 3 5 C2.34 5 1.68 5 1 5 C1 4.34 1 3.68 1 3 C-0.32 3.33 -1.64 3.66 -3 4 C-2.01 2.68 -1.02 1.36 0 0 Z " fill="#282627" transform="translate(160,121)"/>
<path d="M0 0 C0.33 0 0.66 0 1 0 C0.67 4.29 0.34 8.58 0 13 C-2.215015 9.6774775 -2.19410876 9.12268409 -1.6875 5.375 C-1.58824219 4.57835937 -1.48898438 3.78171875 -1.38671875 2.9609375 C-1 1 -1 1 0 0 Z " fill="#3B393A" transform="translate(83,141)"/>
<path d="M0 0 C1.9375 0.8125 1.9375 0.8125 4 2 C4.33 2.99 4.66 3.98 5 5 C4.67 5.66 4.34 6.32 4 7 C2.68 6.67 1.36 6.34 0 6 C0.66 5.67 1.32 5.34 2 5 C2 4.34 2 3.68 2 3 C1.34 3 0.68 3 0 3 C0 2.01 0 1.02 0 0 Z " fill="#262424" transform="translate(119,204)"/>
<path d="M0 0 C2.35171131 0.59861742 4.6859378 1.26924352 7 2 C7.33 2.66 7.66 3.32 8 4 C3.94568308 5.15837626 1.78187881 4.83691257 -2 3 C-1.34 2.67 -0.68 2.34 0 2 C0 1.34 0 0.68 0 0 Z " fill="#343132" transform="translate(113,205)"/>
<path d="M0 0 C3.25524265 3.02272532 5.61820737 6.25718301 8 10 C7.01 10 6.02 10 5 10 C3.61328125 8.57421875 3.61328125 8.57421875 2.3125 6.6875 C1.87550781 6.07261719 1.43851562 5.45773438 0.98828125 4.82421875 C0 3 0 3 0 0 Z " fill="#363536" transform="translate(88,189)"/>
<path d="M0 0 C0.33 1.32 0.66 2.64 1 4 C-1.97 6.475 -1.97 6.475 -5 9 C-4.42647107 5.12867972 -2.51295648 2.91827204 0 0 Z " fill="#373536" transform="translate(134,167)"/>
<path d="M0 0 C1.12758089 3.38274266 0.81750262 4.76778223 0.0625 8.1875 C-0.13214844 9.08855469 -0.32679687 9.98960937 -0.52734375 10.91796875 C-0.68332031 11.60503906 -0.83929688 12.29210937 -1 13 C-1.66 12.67 -2.32 12.34 -3 12 C-2.49202991 7.6822542 -1.80317221 3.96697886 0 0 Z " fill="#585657" transform="translate(88,141)"/>
<path d="M0 0 C-0.33 1.32 -0.66 2.64 -1 4 C-3.92879371 3.37240135 -6.36095629 2.41377341 -9 1 C-5.846632 0.29925156 -3.27275026 0 0 0 Z " fill="#1D191B" transform="translate(146,207)"/>
<path d="M0 0 C0.99 0.495 0.99 0.495 2 1 C2.99 0.67 3.98 0.34 5 0 C5 0.99 5 1.98 5 3 C4.34 3 3.68 3 3 3 C2.67 4.65 2.34 6.3 2 8 C0 6 0 6 -0.125 2.875 C-0.08375 1.92625 -0.0425 0.9775 0 0 Z " fill="#DCDBDB" transform="translate(85,138)"/>
<path d="M0 0 C-2.64 1.65 -5.28 3.3 -8 5 C-8.66 4.34 -9.32 3.68 -10 3 C-3.375 -1.125 -3.375 -1.125 0 0 Z " fill="#2F2D2E" transform="translate(149,160)"/>
<path d="M0 0 C1.32 0.33 2.64 0.66 4 1 C4 2.98 4 4.96 4 7 C3.01 6.67 2.02 6.34 1 6 C0.67 4.02 0.34 2.04 0 0 Z " fill="#242021" transform="translate(105,144)"/>
<path d="M0 0 C0.66 0.66 1.32 1.32 2 2 C1.54545455 7.45454545 1.54545455 7.45454545 -1 10 C-2.46726798 6.18510326 -1.43336419 3.70988378 0 0 Z " fill="#525151" transform="translate(178,91)"/>
<path d="M0 0 C0.66 0.66 1.32 1.32 2 2 C-1.96 3.98 -1.96 3.98 -6 6 C-6.33 5.01 -6.66 4.02 -7 3 C-4.69 2.01 -2.38 1.02 0 0 Z " fill="#373637" transform="translate(198,58)"/>
<path d="M0 0 C1.65 0 3.3 0 5 0 C5.66 1.32 6.32 2.64 7 4 C2.25 3.125 2.25 3.125 0 2 C0 1.34 0 0.68 0 0 Z " fill="#272425" transform="translate(106,203)"/>
<path d="M0 0 C0.33 0 0.66 0 1 0 C1.66 3.63 2.32 7.26 3 11 C2.01 11.495 2.01 11.495 1 12 C0.03929566 9.11788698 -0.10581883 7.30149956 -0.0625 4.3125 C-0.05347656 3.50425781 -0.04445313 2.69601563 -0.03515625 1.86328125 C-0.02355469 1.24839844 -0.01195313 0.63351563 0 0 Z " fill="#292627" transform="translate(124,189)"/>
<path d="M0 0 C0.66 0.66 1.32 1.32 2 2 C0.35 3.65 -1.3 5.3 -3 7 C-3.66 6.67 -4.32 6.34 -5 6 C-3.35 4.02 -1.7 2.04 0 0 Z " fill="#CAC8C9" transform="translate(170,114)"/>
<path d="M0 0 C2.66735273 2.48952921 4.55746343 4.63408134 6 8 C5.01 8 4.02 8 3 8 C0.89229241 5.11165997 0 3.61537605 0 0 Z " fill="#262425" transform="translate(98,189)"/>
<path d="M0 0 C0.66 0.33 1.32 0.66 2 1 C1.67 1.99 1.34 2.98 1 4 C-1.5625 5.1875 -1.5625 5.1875 -4 6 C-4.33 5.34 -4.66 4.68 -5 4 C-4.34 4 -3.68 4 -3 4 C-2.67 3.01 -2.34 2.02 -2 1 C-1.34 0.67 -0.68 0.34 0 0 Z " fill="#F6F6F6" transform="translate(165,139)"/>
<path d="M0 0 C0.66 0 1.32 0 2 0 C3.38938077 1.96147874 4.7260411 3.96166576 6 6 C5.67 6.66 5.34 7.32 5 8 C2.5 5.6875 2.5 5.6875 0 3 C0 2.01 0 1.02 0 0 Z " fill="#CDCBCC" transform="translate(97,192)"/>
<path d="M0 0 C0.66 0.33 1.32 0.66 2 1 C1.6875 2.9375 1.6875 2.9375 1 5 C0.01 5.33 -0.98 5.66 -2 6 C-2 2 -2 2 0 0 Z " fill="#EEEEEE" transform="translate(136,145)"/>
<path d="M0 0 C0.99 0.33 1.98 0.66 3 1 C2.25 5.75 2.25 5.75 0 8 C0 5.36 0 2.72 0 0 Z " fill="#2B2929" transform="translate(125,119)"/>
<path d="M0 0 C0.99 0.33 1.98 0.66 3 1 C0.6875 3.0625 0.6875 3.0625 -2 5 C-2.99 4.67 -3.98 4.34 -5 4 C-2.6875 1.9375 -2.6875 1.9375 0 0 Z " fill="#2D2B2C" transform="translate(148,90)"/>
</svg>
